<svg width="286" height="257" viewBox="0 0 286 257" fill="black" xmlns="http://www.w3.org/2000/svg">
<mask id="path-1-outside-1_72_2" maskUnits="userSpaceOnUse" x="1" y="149.783" width="283" height="55" fill="black">
<rect fill="white" x="1" y="149.783" width="283" height="55"/>
<path d="M6.27112 202.783C5.31352 202.783 4.48438 202.444 3.78369 201.767C3.10636 201.066 2.7677 200.237 2.7677 199.28L2.6626 155.802C2.63924 155.592 2.62756 155.382 2.62756 155.172C2.62756 154.845 2.69763 154.529 2.83777 154.226C3.00126 153.922 3.18811 153.607 3.39832 153.28C3.95886 152.369 4.76465 151.913 5.81567 151.913C7.49731 151.913 8.65344 152.567 9.28406 153.875L28.0273 184.46L45.3693 153.84C46.0699 152.673 47.0159 152.089 48.207 152.089C49.2113 152.089 50.0872 152.416 50.8346 153.07C51.582 153.724 51.9557 154.564 51.9557 155.592V199.42C51.9557 200.377 51.6053 201.207 50.9047 201.907C50.2273 202.585 49.4099 202.923 48.4523 202.923C47.4947 202.923 46.6655 202.585 45.9648 201.907C45.2875 201.207 44.9489 200.377 44.9489 199.42V168.099L31.1804 193.114C30.9235 193.534 30.5264 193.943 29.9893 194.34C29.4521 194.714 28.8682 194.9 28.2375 194.9C26.8829 194.9 25.8435 194.34 25.1195 193.219L9.66943 167.959L9.77454 199.245V199.28C9.77454 200.237 9.42419 201.066 8.72351 201.767C8.04618 202.444 7.22872 202.783 6.27112 202.783ZM61.6952 160.812C60.6208 160.812 59.745 160.485 59.0676 159.831C58.3903 159.154 58.04 158.325 58.0166 157.344L57.9465 154.681C57.9465 153.794 58.3436 153.081 59.1377 152.544C59.9318 151.984 60.6909 151.703 61.4149 151.703C62.3959 151.703 63.2133 152.042 63.8673 152.719C64.5446 153.397 64.895 154.214 64.9183 155.172L64.9534 157.274C64.9534 158.185 64.6497 159.002 64.0425 159.726C63.4352 160.45 62.6528 160.812 61.6952 160.812ZM57.9115 167.434C57.9115 166.546 58.2852 165.822 59.0326 165.261C59.78 164.701 60.504 164.421 61.2047 164.421C62.2324 164.421 63.1082 164.724 63.8323 165.332C64.5563 165.939 64.9183 166.745 64.9183 167.749V167.784L64.9884 200.226C64.9884 201.16 64.6381 201.954 63.9374 202.608C63.2601 203.262 62.4426 203.589 61.485 203.589C60.504 203.589 59.6749 203.262 58.9976 202.608C58.3202 201.931 57.9816 201.125 57.9816 200.191L57.9115 167.434ZM100.898 164.421C101.739 164.421 102.498 164.759 103.176 165.437C103.876 166.114 104.227 166.861 104.227 167.679C104.227 168.403 104.11 168.998 103.876 169.466L89.0919 201.452C88.4613 202.783 87.3869 203.449 85.8688 203.449C84.3039 203.449 83.2529 202.736 82.7157 201.312L69.4728 169.325C69.2859 168.928 69.1925 168.38 69.1925 167.679C69.1925 166.931 69.5078 166.207 70.1384 165.507C70.7924 164.783 71.5164 164.421 72.3105 164.421C74.1323 164.421 75.3468 165.145 75.9541 166.593L86.149 191.397L97.5352 166.453C98.1658 165.098 99.2869 164.421 100.898 164.421ZM125.177 164.245C126.905 164.245 128.587 164.596 130.222 165.297C131.88 165.974 133.352 166.838 134.636 167.889C135.944 168.917 136.914 169.979 137.544 171.077L137.93 167.714C137.93 166.756 138.21 165.939 138.77 165.261C139.331 164.561 140.09 164.21 141.048 164.21C142.005 164.21 142.823 164.561 143.5 165.261C144.201 165.939 144.551 166.756 144.551 167.714V167.784L144.481 200.226C144.481 201.183 144.131 202.012 143.43 202.713C142.753 203.39 141.935 203.729 140.978 203.729C140.02 203.729 139.261 203.39 138.7 202.713C138.14 202.012 137.859 201.183 137.859 200.226L137.474 197.423C136.26 199.502 134.485 201.055 132.149 202.082C129.813 203.087 127.466 203.589 125.107 203.589C122.468 203.589 119.992 203.075 117.68 202.047C115.368 200.996 113.336 199.56 111.584 197.738C109.832 195.916 108.454 193.826 107.45 191.467C106.469 189.108 105.978 186.621 105.978 184.005C105.978 181.412 106.457 178.936 107.415 176.578C108.396 174.195 109.75 172.081 111.479 170.236C113.23 168.368 115.262 166.908 117.575 165.857C119.91 164.783 122.444 164.245 125.177 164.245ZM137.264 183.935C137.264 181.646 136.727 179.544 135.652 177.629C134.601 175.713 133.165 174.172 131.343 173.004C129.521 171.836 127.443 171.252 125.107 171.252C122.818 171.252 120.751 171.836 118.906 173.004C117.061 174.172 115.601 175.725 114.527 177.664C113.452 179.579 112.915 181.657 112.915 183.9C112.915 186.165 113.464 188.267 114.562 190.206C115.66 192.121 117.131 193.663 118.976 194.83C120.845 195.998 122.9 196.582 125.142 196.582C127.384 196.582 129.416 195.998 131.238 194.83C133.083 193.663 134.543 192.121 135.617 190.206C136.715 188.267 137.264 186.177 137.264 183.935ZM154.255 203.309C153.298 203.309 152.469 202.982 151.768 202.328C151.091 201.65 150.752 200.845 150.752 199.91V199.875L150.682 155.977C150.682 155.347 150.974 154.634 151.558 153.84C152.165 153.023 153.029 152.602 154.15 152.579L165.186 152.509C168.596 152.509 171.691 153.07 174.47 154.191C177.273 155.288 179.492 156.958 181.127 159.201C182.785 161.443 183.614 164.292 183.614 167.749C183.614 171.696 182.75 174.873 181.022 177.278C179.293 179.684 176.923 181.447 173.91 182.568C170.92 183.689 167.51 184.308 163.68 184.425L157.724 184.565L157.759 199.945V199.98C157.759 200.915 157.409 201.709 156.708 202.363C156.031 202.993 155.213 203.309 154.255 203.309ZM176.607 167.784C176.607 164.864 175.568 162.762 173.489 161.478C171.434 160.193 168.584 159.551 164.941 159.551H157.689L157.724 177.488L163.575 177.348C167.685 177.255 170.885 176.554 173.174 175.246C175.463 173.938 176.607 171.451 176.607 167.784ZM211.817 151.948C215.39 151.948 218.672 152.649 221.661 154.051C224.674 155.429 227.29 157.332 229.509 159.761C231.728 162.167 233.444 164.946 234.659 168.099C235.873 171.229 236.481 174.557 236.481 178.084C236.481 181.611 235.873 184.927 234.659 188.034C233.468 191.117 231.774 193.838 229.579 196.197C227.384 198.556 224.779 200.401 221.766 201.732C218.777 203.063 215.472 203.729 211.852 203.729C208.161 203.729 204.81 203.063 201.797 201.732C198.784 200.377 196.191 198.521 194.019 196.162C191.871 193.779 190.212 191.035 189.044 187.929C187.877 184.799 187.293 181.447 187.293 177.874C187.293 174.394 187.9 171.101 189.115 167.994C190.352 164.888 192.069 162.132 194.265 159.726C196.483 157.297 199.076 155.394 202.042 154.016C205.032 152.637 208.29 151.948 211.817 151.948ZM211.957 159.06C208.5 159.06 205.44 159.96 202.778 161.758C200.139 163.556 198.06 165.939 196.542 168.905C195.047 171.848 194.3 175.071 194.3 178.574C194.3 180.957 194.755 183.234 195.666 185.406C196.577 187.578 197.838 189.517 199.45 191.222C201.061 192.903 202.918 194.235 205.02 195.216C207.145 196.173 209.411 196.652 211.817 196.652C214.222 196.652 216.488 196.15 218.613 195.146C220.762 194.141 222.654 192.787 224.289 191.082C225.947 189.377 227.243 187.461 228.178 185.336C229.112 183.187 229.579 180.992 229.579 178.75C229.579 175.129 228.785 171.836 227.197 168.87C225.632 165.88 223.518 163.498 220.855 161.723C218.193 159.948 215.227 159.06 211.957 159.06ZM262.196 151.878C264.882 151.878 267.416 152.334 269.798 153.245C272.204 154.156 274.306 155.417 276.104 157.028C277.903 158.64 279.269 160.509 280.203 162.634C280.414 163.101 280.519 163.58 280.519 164.07C280.519 165.028 280.168 165.857 279.468 166.558C278.79 167.235 277.973 167.574 277.015 167.574C276.385 167.574 275.754 167.375 275.123 166.978C274.493 166.558 274.049 166.056 273.792 165.472C272.905 163.463 271.421 161.863 269.343 160.672C267.287 159.481 264.905 158.885 262.196 158.885C260.865 158.885 259.451 159.049 257.957 159.376C256.485 159.703 255.096 160.205 253.788 160.882C252.48 161.536 251.417 162.365 250.599 163.37C249.782 164.374 249.373 165.542 249.373 166.873C249.373 167.947 249.724 168.882 250.424 169.676C251.125 170.447 251.907 171.054 252.772 171.498C254.804 172.502 257.046 173.203 259.498 173.6C261.974 173.997 264.473 174.382 266.995 174.756C269.518 175.129 271.865 175.783 274.037 176.718C275.415 177.302 276.735 178.107 277.996 179.135C279.257 180.163 280.285 181.412 281.079 182.884C281.873 184.355 282.27 186.083 282.27 188.069C282.27 190.638 281.651 192.892 280.414 194.83C279.176 196.769 277.552 198.38 275.544 199.665C273.535 200.95 271.351 201.919 268.992 202.573C266.657 203.203 264.368 203.519 262.126 203.519C259.089 203.519 256.24 203.04 253.577 202.082C250.915 201.101 248.591 199.723 246.606 197.948C244.62 196.15 243.102 194.048 242.051 191.642C241.841 191.175 241.736 190.708 241.736 190.241C241.736 189.283 242.075 188.466 242.752 187.788C243.453 187.088 244.282 186.737 245.239 186.737C245.893 186.737 246.536 186.948 247.166 187.368C247.797 187.765 248.229 188.267 248.462 188.875C249.49 191.233 251.23 193.102 253.682 194.48C256.135 195.835 258.949 196.512 262.126 196.512C264.111 196.512 266.108 196.22 268.117 195.636C270.125 195.029 271.807 194.106 273.161 192.868C274.54 191.607 275.229 190.007 275.229 188.069C275.229 186.831 274.808 185.815 273.967 185.021C273.15 184.203 272.251 183.584 271.27 183.164C269.051 182.206 266.68 181.552 264.158 181.202C261.635 180.828 259.124 180.443 256.625 180.046C254.126 179.625 251.791 178.866 249.619 177.769C247.773 176.834 246.092 175.48 244.574 173.705C243.079 171.906 242.331 169.629 242.331 166.873C242.331 164.444 242.915 162.307 244.083 160.462C245.274 158.593 246.839 157.028 248.778 155.767C250.74 154.483 252.888 153.513 255.224 152.859C257.56 152.205 259.884 151.878 262.196 151.878Z"/>
</mask>
<path d="M6.27112 202.783C5.31352 202.783 4.48438 202.444 3.78369 201.767C3.10636 201.066 2.7677 200.237 2.7677 199.28L2.6626 155.802C2.63924 155.592 2.62756 155.382 2.62756 155.172C2.62756 154.845 2.69763 154.529 2.83777 154.226C3.00126 153.922 3.18811 153.607 3.39832 153.28C3.95886 152.369 4.76465 151.913 5.81567 151.913C7.49731 151.913 8.65344 152.567 9.28406 153.875L28.0273 184.46L45.3693 153.84C46.0699 152.673 47.0159 152.089 48.207 152.089C49.2113 152.089 50.0872 152.416 50.8346 153.07C51.582 153.724 51.9557 154.564 51.9557 155.592V199.42C51.9557 200.377 51.6053 201.207 50.9047 201.907C50.2273 202.585 49.4099 202.923 48.4523 202.923C47.4947 202.923 46.6655 202.585 45.9648 201.907C45.2875 201.207 44.9489 200.377 44.9489 199.42V168.099L31.1804 193.114C30.9235 193.534 30.5264 193.943 29.9893 194.34C29.4521 194.714 28.8682 194.9 28.2375 194.9C26.8829 194.9 25.8435 194.34 25.1195 193.219L9.66943 167.959L9.77454 199.245V199.28C9.77454 200.237 9.42419 201.066 8.72351 201.767C8.04618 202.444 7.22872 202.783 6.27112 202.783ZM61.6952 160.812C60.6208 160.812 59.745 160.485 59.0676 159.831C58.3903 159.154 58.04 158.325 58.0166 157.344L57.9465 154.681C57.9465 153.794 58.3436 153.081 59.1377 152.544C59.9318 151.984 60.6909 151.703 61.4149 151.703C62.3959 151.703 63.2133 152.042 63.8673 152.719C64.5446 153.397 64.895 154.214 64.9183 155.172L64.9534 157.274C64.9534 158.185 64.6497 159.002 64.0425 159.726C63.4352 160.45 62.6528 160.812 61.6952 160.812ZM57.9115 167.434C57.9115 166.546 58.2852 165.822 59.0326 165.261C59.78 164.701 60.504 164.421 61.2047 164.421C62.2324 164.421 63.1082 164.724 63.8323 165.332C64.5563 165.939 64.9183 166.745 64.9183 167.749V167.784L64.9884 200.226C64.9884 201.16 64.6381 201.954 63.9374 202.608C63.2601 203.262 62.4426 203.589 61.485 203.589C60.504 203.589 59.6749 203.262 58.9976 202.608C58.3202 201.931 57.9816 201.125 57.9816 200.191L57.9115 167.434ZM100.898 164.421C101.739 164.421 102.498 164.759 103.176 165.437C103.876 166.114 104.227 166.861 104.227 167.679C104.227 168.403 104.11 168.998 103.876 169.466L89.0919 201.452C88.4613 202.783 87.3869 203.449 85.8688 203.449C84.3039 203.449 83.2529 202.736 82.7157 201.312L69.4728 169.325C69.2859 168.928 69.1925 168.38 69.1925 167.679C69.1925 166.931 69.5078 166.207 70.1384 165.507C70.7924 164.783 71.5164 164.421 72.3105 164.421C74.1323 164.421 75.3468 165.145 75.9541 166.593L86.149 191.397L97.5352 166.453C98.1658 165.098 99.2869 164.421 100.898 164.421ZM125.177 164.245C126.905 164.245 128.587 164.596 130.222 165.297C131.88 165.974 133.352 166.838 134.636 167.889C135.944 168.917 136.914 169.979 137.544 171.077L137.93 167.714C137.93 166.756 138.21 165.939 138.77 165.261C139.331 164.561 140.09 164.21 141.048 164.21C142.005 164.21 142.823 164.561 143.5 165.261C144.201 165.939 144.551 166.756 144.551 167.714V167.784L144.481 200.226C144.481 201.183 144.131 202.012 143.43 202.713C142.753 203.39 141.935 203.729 140.978 203.729C140.02 203.729 139.261 203.39 138.7 202.713C138.14 202.012 137.859 201.183 137.859 200.226L137.474 197.423C136.26 199.502 134.485 201.055 132.149 202.082C129.813 203.087 127.466 203.589 125.107 203.589C122.468 203.589 119.992 203.075 117.68 202.047C115.368 200.996 113.336 199.56 111.584 197.738C109.832 195.916 108.454 193.826 107.45 191.467C106.469 189.108 105.978 186.621 105.978 184.005C105.978 181.412 106.457 178.936 107.415 176.578C108.396 174.195 109.75 172.081 111.479 170.236C113.23 168.368 115.262 166.908 117.575 165.857C119.91 164.783 122.444 164.245 125.177 164.245ZM137.264 183.935C137.264 181.646 136.727 179.544 135.652 177.629C134.601 175.713 133.165 174.172 131.343 173.004C129.521 171.836 127.443 171.252 125.107 171.252C122.818 171.252 120.751 171.836 118.906 173.004C117.061 174.172 115.601 175.725 114.527 177.664C113.452 179.579 112.915 181.657 112.915 183.9C112.915 186.165 113.464 188.267 114.562 190.206C115.66 192.121 117.131 193.663 118.976 194.83C120.845 195.998 122.9 196.582 125.142 196.582C127.384 196.582 129.416 195.998 131.238 194.83C133.083 193.663 134.543 192.121 135.617 190.206C136.715 188.267 137.264 186.177 137.264 183.935ZM154.255 203.309C153.298 203.309 152.469 202.982 151.768 202.328C151.091 201.65 150.752 200.845 150.752 199.91V199.875L150.682 155.977C150.682 155.347 150.974 154.634 151.558 153.84C152.165 153.023 153.029 152.602 154.15 152.579L165.186 152.509C168.596 152.509 171.691 153.07 174.47 154.191C177.273 155.288 179.492 156.958 181.127 159.201C182.785 161.443 183.614 164.292 183.614 167.749C183.614 171.696 182.75 174.873 181.022 177.278C179.293 179.684 176.923 181.447 173.91 182.568C170.92 183.689 167.51 184.308 163.68 184.425L157.724 184.565L157.759 199.945V199.98C157.759 200.915 157.409 201.709 156.708 202.363C156.031 202.993 155.213 203.309 154.255 203.309ZM176.607 167.784C176.607 164.864 175.568 162.762 173.489 161.478C171.434 160.193 168.584 159.551 164.941 159.551H157.689L157.724 177.488L163.575 177.348C167.685 177.255 170.885 176.554 173.174 175.246C175.463 173.938 176.607 171.451 176.607 167.784ZM211.817 151.948C215.39 151.948 218.672 152.649 221.661 154.051C224.674 155.429 227.29 157.332 229.509 159.761C231.728 162.167 233.444 164.946 234.659 168.099C235.873 171.229 236.481 174.557 236.481 178.084C236.481 181.611 235.873 184.927 234.659 188.034C233.468 191.117 231.774 193.838 229.579 196.197C227.384 198.556 224.779 200.401 221.766 201.732C218.777 203.063 215.472 203.729 211.852 203.729C208.161 203.729 204.81 203.063 201.797 201.732C198.784 200.377 196.191 198.521 194.019 196.162C191.871 193.779 190.212 191.035 189.044 187.929C187.877 184.799 187.293 181.447 187.293 177.874C187.293 174.394 187.9 171.101 189.115 167.994C190.352 164.888 192.069 162.132 194.265 159.726C196.483 157.297 199.076 155.394 202.042 154.016C205.032 152.637 208.29 151.948 211.817 151.948ZM211.957 159.06C208.5 159.06 205.44 159.96 202.778 161.758C200.139 163.556 198.06 165.939 196.542 168.905C195.047 171.848 194.3 175.071 194.3 178.574C194.3 180.957 194.755 183.234 195.666 185.406C196.577 187.578 197.838 189.517 199.45 191.222C201.061 192.903 202.918 194.235 205.02 195.216C207.145 196.173 209.411 196.652 211.817 196.652C214.222 196.652 216.488 196.15 218.613 195.146C220.762 194.141 222.654 192.787 224.289 191.082C225.947 189.377 227.243 187.461 228.178 185.336C229.112 183.187 229.579 180.992 229.579 178.75C229.579 175.129 228.785 171.836 227.197 168.87C225.632 165.88 223.518 163.498 220.855 161.723C218.193 159.948 215.227 159.06 211.957 159.06ZM262.196 151.878C264.882 151.878 267.416 152.334 269.798 153.245C272.204 154.156 274.306 155.417 276.104 157.028C277.903 158.64 279.269 160.509 280.203 162.634C280.414 163.101 280.519 163.58 280.519 164.07C280.519 165.028 280.168 165.857 279.468 166.558C278.79 167.235 277.973 167.574 277.015 167.574C276.385 167.574 275.754 167.375 275.123 166.978C274.493 166.558 274.049 166.056 273.792 165.472C272.905 163.463 271.421 161.863 269.343 160.672C267.287 159.481 264.905 158.885 262.196 158.885C260.865 158.885 259.451 159.049 257.957 159.376C256.485 159.703 255.096 160.205 253.788 160.882C252.48 161.536 251.417 162.365 250.599 163.37C249.782 164.374 249.373 165.542 249.373 166.873C249.373 167.947 249.724 168.882 250.424 169.676C251.125 170.447 251.907 171.054 252.772 171.498C254.804 172.502 257.046 173.203 259.498 173.6C261.974 173.997 264.473 174.382 266.995 174.756C269.518 175.129 271.865 175.783 274.037 176.718C275.415 177.302 276.735 178.107 277.996 179.135C279.257 180.163 280.285 181.412 281.079 182.884C281.873 184.355 282.27 186.083 282.27 188.069C282.27 190.638 281.651 192.892 280.414 194.83C279.176 196.769 277.552 198.38 275.544 199.665C273.535 200.95 271.351 201.919 268.992 202.573C266.657 203.203 264.368 203.519 262.126 203.519C259.089 203.519 256.24 203.04 253.577 202.082C250.915 201.101 248.591 199.723 246.606 197.948C244.62 196.15 243.102 194.048 242.051 191.642C241.841 191.175 241.736 190.708 241.736 190.241C241.736 189.283 242.075 188.466 242.752 187.788C243.453 187.088 244.282 186.737 245.239 186.737C245.893 186.737 246.536 186.948 247.166 187.368C247.797 187.765 248.229 188.267 248.462 188.875C249.49 191.233 251.23 193.102 253.682 194.48C256.135 195.835 258.949 196.512 262.126 196.512C264.111 196.512 266.108 196.22 268.117 195.636C270.125 195.029 271.807 194.106 273.161 192.868C274.54 191.607 275.229 190.007 275.229 188.069C275.229 186.831 274.808 185.815 273.967 185.021C273.15 184.203 272.251 183.584 271.27 183.164C269.051 182.206 266.68 181.552 264.158 181.202C261.635 180.828 259.124 180.443 256.625 180.046C254.126 179.625 251.791 178.866 249.619 177.769C247.773 176.834 246.092 175.48 244.574 173.705C243.079 171.906 242.331 169.629 242.331 166.873C242.331 164.444 242.915 162.307 244.083 160.462C245.274 158.593 246.839 157.028 248.778 155.767C250.74 154.483 252.888 153.513 255.224 152.859C257.56 152.205 259.884 151.878 262.196 151.878Z" fill="#27135F" style="fill:#27135F;fill:color(display-p3 0.1529 0.0745 0.3725);fill-opacity:1;"/>
<path d="M3.78369 201.767L3.11805 202.411L3.12895 202.422L3.14024 202.433L3.78369 201.767ZM2.7677 199.28H3.69351L3.6935 199.277L2.7677 199.28ZM2.6626 155.802L3.5884 155.8L3.58828 155.75L3.58274 155.7L2.6626 155.802ZM2.83777 154.226L2.02262 153.787L2.00911 153.812L1.99717 153.838L2.83777 154.226ZM3.39832 153.28L4.17708 153.78L4.18201 153.773L4.18679 153.765L3.39832 153.28ZM9.28406 153.875L8.45012 154.277L8.47035 154.319L8.49469 154.359L9.28406 153.875ZM28.0273 184.46L27.238 184.944L28.0588 186.283L28.8329 184.916L28.0273 184.46ZM45.3693 153.84L44.5754 153.364L44.5694 153.374L44.5637 153.384L45.3693 153.84ZM50.9047 201.907L50.25 201.253L50.9047 201.907ZM45.9648 201.907L45.2992 202.551L45.3101 202.562L45.3214 202.573L45.9648 201.907ZM44.9489 168.099H45.8747L44.1378 167.653L44.9489 168.099ZM31.1804 193.114L31.9704 193.596L31.9813 193.578L31.9915 193.56L31.1804 193.114ZM29.9893 194.34L30.518 195.1L30.5289 195.092L30.5395 195.084L29.9893 194.34ZM25.1195 193.219L24.3297 193.702L24.3356 193.711L24.3418 193.721L25.1195 193.219ZM9.66943 167.959L10.4592 167.476L8.73252 164.653L8.74363 167.962L9.66943 167.959ZM9.77454 199.245H10.7003L10.7003 199.242L9.77454 199.245ZM6.27112 201.857C5.55832 201.857 4.95861 201.615 4.42715 201.101L3.14024 202.433C4.01014 203.274 5.06871 203.709 6.27112 203.709V201.857ZM4.44934 201.124C3.93559 200.592 3.69351 199.992 3.69351 199.28H1.84189C1.84189 200.482 2.27714 201.541 3.11805 202.411L4.44934 201.124ZM3.6935 199.277L3.5884 155.8L1.73679 155.804L1.8419 199.282L3.6935 199.277ZM3.58274 155.7C3.56313 155.524 3.55337 155.347 3.55337 155.172H1.70176C1.70176 155.416 1.71535 155.661 1.74245 155.904L3.58274 155.7ZM3.55337 155.172C3.55337 154.982 3.59305 154.799 3.67836 154.614L1.99717 153.838C1.80221 154.26 1.70176 154.708 1.70176 155.172H3.55337ZM3.65291 154.665C3.80377 154.384 3.9782 154.09 4.17708 153.78L2.61955 152.779C2.39802 153.124 2.19876 153.46 2.02262 153.787L3.65291 154.665ZM4.18679 153.765C4.58247 153.122 5.09302 152.839 5.81567 152.839V150.988C4.43628 150.988 3.33525 151.616 2.60984 152.795L4.18679 153.765ZM5.81567 152.839C6.53849 152.839 7.08147 152.98 7.48818 153.21C7.88667 153.435 8.20876 153.777 8.45012 154.277L10.118 153.473C9.72874 152.666 9.15746 152.027 8.39982 151.598C7.65041 151.174 6.7745 150.988 5.81567 150.988V152.839ZM8.49469 154.359L27.238 184.944L28.8167 183.976L10.0734 153.392L8.49469 154.359ZM28.8329 184.916L46.1748 154.297L44.5637 153.384L27.2218 184.004L28.8329 184.916ZM46.1631 154.317C46.725 153.38 47.3929 153.014 48.207 153.014V151.163C46.6388 151.163 45.4149 151.965 44.5754 153.364L46.1631 154.317ZM48.207 153.014C48.9899 153.014 49.6484 153.262 50.2249 153.766L51.4442 152.373C50.526 151.569 49.4328 151.163 48.207 151.163V153.014ZM50.2249 153.766C50.7636 154.238 51.0299 154.821 51.0299 155.592H52.8815C52.8815 154.308 52.4004 153.209 51.4442 152.373L50.2249 153.766ZM51.0299 155.592V199.42H52.8815V155.592H51.0299ZM51.0299 199.42C51.0299 200.122 50.7838 200.719 50.25 201.253L51.5593 202.562C52.4269 201.694 52.8815 200.632 52.8815 199.42H51.0299ZM50.25 201.253C49.7463 201.756 49.1642 201.997 48.4523 201.997V203.849C49.6555 203.849 50.7084 203.413 51.5593 202.562L50.25 201.253ZM48.4523 201.997C47.7395 201.997 47.1398 201.755 46.6083 201.242L45.3214 202.573C46.1913 203.414 47.2499 203.849 48.4523 203.849V201.997ZM46.6305 201.264C46.1167 200.732 45.8747 200.133 45.8747 199.42H44.023C44.023 200.622 44.4583 201.681 45.2992 202.551L46.6305 201.264ZM45.8747 199.42V168.099H44.023V199.42H45.8747ZM44.1378 167.653L30.3694 192.667L31.9915 193.56L45.7599 168.546L44.1378 167.653ZM30.3904 192.631C30.2137 192.92 29.9122 193.246 29.439 193.595L30.5395 195.084C31.1407 194.64 31.6333 194.148 31.9704 193.596L30.3904 192.631ZM29.4606 193.58C29.0723 193.85 28.6717 193.975 28.2375 193.975V195.826C29.0646 195.826 29.8318 195.577 30.518 195.1L29.4606 193.58ZM28.2375 193.975C27.1915 193.975 26.4476 193.569 25.8972 192.716L24.3418 193.721C25.2395 195.111 26.5743 195.826 28.2375 195.826V193.975ZM25.9093 192.736L10.4592 167.476L8.87965 168.442L24.3297 193.702L25.9093 192.736ZM8.74363 167.962L8.84873 199.248L10.7003 199.242L10.5952 167.956L8.74363 167.962ZM8.84873 199.245V199.28H10.7003V199.245H8.84873ZM8.84873 199.28C8.84873 199.982 8.60268 200.579 8.06887 201.112L9.37815 202.422C10.2457 201.554 10.7003 200.492 10.7003 199.28H8.84873ZM8.06887 201.112C7.5651 201.616 6.9831 201.857 6.27112 201.857V203.709C7.47434 203.709 8.52726 203.273 9.37815 202.422L8.06887 201.112ZM59.0676 159.831L58.413 160.486L58.4187 160.492L58.4246 160.497L59.0676 159.831ZM58.0166 157.344L58.9422 157.322L58.9421 157.319L58.0166 157.344ZM57.9465 154.681H57.0207V154.693L57.021 154.706L57.9465 154.681ZM59.1377 152.544L59.6564 153.311L59.6641 153.306L59.6716 153.3L59.1377 152.544ZM63.8673 152.719L63.2013 153.362L63.2069 153.368L63.2127 153.374L63.8673 152.719ZM64.9183 155.172L65.844 155.156L65.8439 155.149L64.9183 155.172ZM64.9534 157.274H65.8792V157.266L65.879 157.258L64.9534 157.274ZM64.0425 159.726L64.7518 160.321L64.0425 159.726ZM57.9115 167.434H56.9857L56.9857 167.436L57.9115 167.434ZM59.0326 165.261L58.4771 164.521L59.0326 165.261ZM63.8323 165.332L63.2373 166.041L63.8323 165.332ZM64.9183 167.784H63.9925L63.9925 167.786L64.9183 167.784ZM64.9884 200.226H65.9142L65.9142 200.224L64.9884 200.226ZM63.9374 202.608L63.3057 201.931L63.3 201.936L63.2943 201.942L63.9374 202.608ZM58.9976 202.608L58.3429 203.263L58.3487 203.268L58.3545 203.274L58.9976 202.608ZM57.9816 200.191H58.9074L58.9074 200.189L57.9816 200.191ZM61.6952 159.886C60.8241 159.886 60.1908 159.629 59.7107 159.165L58.4246 160.497C59.2991 161.342 60.4175 161.738 61.6952 161.738V159.886ZM59.7223 159.177C59.2177 158.672 58.96 158.071 58.9421 157.322L57.0911 157.366C57.1199 158.578 57.5629 159.636 58.413 160.486L59.7223 159.177ZM58.9421 157.319L58.872 154.657L57.021 154.706L57.0911 157.368L58.9421 157.319ZM58.8723 154.681C58.8723 154.129 59.0927 153.692 59.6564 153.311L58.619 151.777C57.5944 152.47 57.0207 153.458 57.0207 154.681H58.8723ZM59.6716 153.3C60.3621 152.813 60.9377 152.629 61.4149 152.629V150.777C60.444 150.777 59.5015 151.154 58.6038 151.788L59.6716 153.3ZM61.4149 152.629C62.1565 152.629 62.7298 152.874 63.2013 153.362L64.5333 152.076C63.6969 151.21 62.6352 150.777 61.4149 150.777V152.629ZM63.2127 153.374C63.7219 153.883 63.9752 154.474 63.9928 155.194L65.8439 155.149C65.8147 153.954 65.3674 152.91 64.522 152.065L63.2127 153.374ZM63.9927 155.187L64.0277 157.289L65.879 157.258L65.844 155.156L63.9927 155.187ZM64.0276 157.274C64.0276 157.958 63.8063 158.567 63.3331 159.131L64.7518 160.321C65.4932 159.437 65.8792 158.411 65.8792 157.274H64.0276ZM63.3331 159.131C62.9045 159.642 62.3833 159.886 61.6952 159.886V161.738C62.9223 161.738 63.966 161.258 64.7518 160.321L63.3331 159.131ZM58.8373 167.434C58.8373 166.855 59.0595 166.399 59.5881 166.002L58.4771 164.521C57.5109 165.245 56.9857 166.237 56.9857 167.434H58.8373ZM59.5881 166.002C60.2283 165.522 60.7618 165.346 61.2047 165.346V163.495C60.2462 163.495 59.3317 163.88 58.4771 164.521L59.5881 166.002ZM61.2047 165.346C62.0352 165.346 62.695 165.586 63.2373 166.041L64.4272 164.622C63.5214 163.863 62.4295 163.495 61.2047 163.495V165.346ZM63.2373 166.041C63.7371 166.46 63.9925 166.999 63.9925 167.749H65.8441C65.8441 166.49 65.3756 165.418 64.4272 164.622L63.2373 166.041ZM63.9925 167.749V167.784H65.8441V167.749H63.9925ZM63.9925 167.786L64.0626 200.228L65.9142 200.224L65.8441 167.782L63.9925 167.786ZM64.0626 200.226C64.0626 200.896 63.8243 201.447 63.3057 201.931L64.5691 203.285C65.4519 202.461 65.9142 201.424 65.9142 200.226H64.0626ZM63.2943 201.942C62.7929 202.426 62.2072 202.663 61.485 202.663V204.515C62.6779 204.515 63.7273 204.098 64.5804 203.274L63.2943 201.942ZM61.485 202.663C60.7328 202.663 60.1375 202.422 59.6406 201.942L58.3545 203.274C59.2123 204.102 60.2753 204.515 61.485 204.515V202.663ZM59.6522 201.953C59.1436 201.445 58.9074 200.872 58.9074 200.191H57.0558C57.0558 201.377 57.4969 202.417 58.3429 203.263L59.6522 201.953ZM58.9074 200.189L58.8373 167.432L56.9857 167.436L57.0558 200.193L58.9074 200.189ZM103.176 165.437L102.521 166.091L102.527 166.097L102.532 166.102L103.176 165.437ZM103.876 169.466L103.048 169.052L103.042 169.064L103.036 169.077L103.876 169.466ZM89.0919 201.452L89.9286 201.848L89.9323 201.84L89.0919 201.452ZM82.7157 201.312L83.582 200.985L83.5768 200.971L83.5711 200.957L82.7157 201.312ZM69.4728 169.325L70.3282 168.971L70.3198 168.951L70.3105 168.931L69.4728 169.325ZM70.1384 165.507L69.4514 164.886L69.4503 164.887L70.1384 165.507ZM75.9541 166.593L76.8104 166.241L76.8079 166.235L75.9541 166.593ZM86.149 191.397L85.2927 191.749L86.1045 193.724L86.9913 191.781L86.149 191.397ZM97.5352 166.453L96.6958 166.062L96.6929 166.068L97.5352 166.453ZM100.898 165.346C101.459 165.346 101.991 165.561 102.521 166.091L103.83 164.782C103.006 163.957 102.02 163.495 100.898 163.495V165.346ZM102.532 166.102C103.09 166.641 103.301 167.16 103.301 167.679H105.152C105.152 166.563 104.663 165.587 103.819 164.771L102.532 166.102ZM103.301 167.679C103.301 168.312 103.198 168.753 103.048 169.052L104.704 169.88C105.022 169.244 105.152 168.494 105.152 167.679H103.301ZM103.036 169.077L88.2515 201.063L89.9323 201.84L104.717 169.854L103.036 169.077ZM88.2552 201.055C88.0033 201.587 87.6875 201.938 87.3256 202.162C86.9619 202.388 86.4905 202.523 85.8688 202.523V204.375C86.7652 204.375 87.59 204.177 88.3008 203.736C89.0132 203.295 89.5499 202.648 89.9286 201.848L88.2552 201.055ZM85.8688 202.523C85.2281 202.523 84.7661 202.378 84.4263 202.148C84.0884 201.919 83.7968 201.555 83.582 200.985L81.8494 201.638C82.1717 202.493 82.6743 203.197 83.3874 203.681C84.0986 204.163 84.9445 204.375 85.8688 204.375V202.523ZM83.5711 200.957L70.3282 168.971L68.6174 169.68L81.8603 201.666L83.5711 200.957ZM70.3105 168.931C70.2061 168.709 70.1183 168.316 70.1183 167.679H68.2667C68.2667 168.443 68.3658 169.147 68.6351 169.72L70.3105 168.931ZM70.1183 167.679C70.1183 167.215 70.3075 166.703 70.8266 166.126L69.4503 164.887C68.7081 165.712 68.2667 166.648 68.2667 167.679H70.1183ZM70.8255 166.127C71.3472 165.55 71.8367 165.346 72.3105 165.346V163.495C71.1962 163.495 70.2376 164.016 69.4514 164.886L70.8255 166.127ZM72.3105 165.346C73.1018 165.346 73.6856 165.504 74.1137 165.759C74.5322 166.008 74.8644 166.388 75.1003 166.951L76.8079 166.235C76.4366 165.349 75.8579 164.643 75.0618 164.168C74.2755 163.7 73.3411 163.495 72.3105 163.495V165.346ZM75.0978 166.945L85.2927 191.749L87.0053 191.045L76.8104 166.241L75.0978 166.945ZM86.9913 191.781L98.3774 166.837L96.6929 166.068L85.3068 191.013L86.9913 191.781ZM98.3745 166.843C98.6234 166.309 98.946 165.952 99.3277 165.721C99.7139 165.488 100.223 165.346 100.898 165.346V163.495C99.9627 163.495 99.1051 163.692 98.3702 164.136C97.6308 164.583 97.0775 165.242 96.6958 166.062L98.3745 166.843ZM130.222 165.297L129.857 166.147L129.865 166.151L129.872 166.154L130.222 165.297ZM134.636 167.889L134.05 168.606L134.057 168.611L134.064 168.617L134.636 167.889ZM137.544 171.077L136.741 171.538L138.144 173.979L138.464 171.183L137.544 171.077ZM137.93 167.714L138.849 167.819L138.855 167.767V167.714H137.93ZM138.77 165.261L139.484 165.852L139.489 165.846L139.493 165.84L138.77 165.261ZM143.5 165.261L142.834 165.905L142.845 165.916L142.857 165.927L143.5 165.261ZM144.551 167.784L145.477 167.786V167.784H144.551ZM144.481 200.226L143.555 200.224V200.226H144.481ZM143.43 202.713L142.775 202.058L143.43 202.713ZM138.7 202.713L137.977 203.291L137.982 203.297L137.987 203.303L138.7 202.713ZM137.859 200.226H138.785V200.162L138.777 200.099L137.859 200.226ZM137.474 197.423L138.391 197.297L138.026 194.643L136.675 196.956L137.474 197.423ZM132.149 202.082L132.515 202.933L132.522 202.93L132.149 202.082ZM117.68 202.047L117.297 202.89L117.304 202.893L117.68 202.047ZM107.45 191.467L106.595 191.823L106.598 191.83L107.45 191.467ZM107.415 176.578L106.559 176.225L106.557 176.229L107.415 176.578ZM111.479 170.236L110.803 169.603L110.803 169.603L111.479 170.236ZM117.575 165.857L117.958 166.7L117.962 166.698L117.575 165.857ZM135.652 177.629L134.841 178.074L134.845 178.081L135.652 177.629ZM114.527 177.664L115.334 178.117L115.336 178.112L114.527 177.664ZM114.562 190.206L113.756 190.662L113.759 190.666L114.562 190.206ZM118.976 194.83L118.481 195.613L118.485 195.615L118.976 194.83ZM131.238 194.83L130.743 194.048L130.738 194.051L131.238 194.83ZM135.617 190.206L134.812 189.75L134.81 189.753L135.617 190.206ZM125.177 165.171C126.776 165.171 128.334 165.495 129.857 166.147L130.587 164.446C128.84 163.697 127.035 163.32 125.177 163.32V165.171ZM129.872 166.154C131.452 166.799 132.842 167.617 134.05 168.606L135.223 167.173C133.861 166.059 132.309 165.149 130.572 164.439L129.872 166.154ZM134.064 168.617C135.307 169.593 136.185 170.57 136.741 171.538L138.347 170.616C137.642 169.389 136.582 168.24 135.208 167.161L134.064 168.617ZM138.464 171.183L138.849 167.819L137.01 167.608L136.624 170.972L138.464 171.183ZM138.855 167.714C138.855 166.951 139.073 166.348 139.484 165.852L138.057 164.671C137.347 165.53 137.004 166.561 137.004 167.714H138.855ZM139.493 165.84C139.865 165.375 140.35 165.136 141.048 165.136V163.285C139.831 163.285 138.797 163.746 138.047 164.683L139.493 165.84ZM141.048 165.136C141.749 165.136 142.328 165.381 142.834 165.905L144.166 164.618C143.317 163.74 142.261 163.285 141.048 163.285V165.136ZM142.857 165.927C143.38 166.433 143.625 167.012 143.625 167.714H145.477C145.477 166.5 145.021 165.444 144.143 164.596L142.857 165.927ZM143.625 167.714V167.784H145.477V167.714H143.625ZM143.625 167.782L143.555 200.224L145.407 200.228L145.477 167.786L143.625 167.782ZM143.555 200.226C143.555 200.928 143.309 201.525 142.775 202.058L144.085 203.368C144.952 202.5 145.407 201.438 145.407 200.226H143.555ZM142.775 202.058C142.272 202.562 141.69 202.803 140.978 202.803V204.655C142.181 204.655 143.234 204.219 144.085 203.368L142.775 202.058ZM140.978 202.803C140.268 202.803 139.781 202.567 139.414 202.123L137.987 203.303C138.741 204.214 139.772 204.655 140.978 204.655V202.803ZM139.423 202.135C139.003 201.61 138.785 200.988 138.785 200.226H136.934C136.934 201.378 137.276 202.415 137.977 203.291L139.423 202.135ZM138.777 200.099L138.391 197.297L136.557 197.549L136.942 200.352L138.777 200.099ZM136.675 196.956C135.565 198.855 133.944 200.281 131.776 201.235L132.522 202.93C135.025 201.828 136.954 200.148 138.273 197.89L136.675 196.956ZM131.783 201.232C129.554 202.19 127.331 202.663 125.107 202.663V204.515C127.601 204.515 130.073 203.983 132.515 202.933L131.783 201.232ZM125.107 202.663C122.592 202.663 120.245 202.174 118.056 201.201L117.304 202.893C119.74 203.976 122.344 204.515 125.107 204.515V202.663ZM118.063 201.205C115.857 200.202 113.921 198.833 112.251 197.096L110.917 198.38C112.75 200.286 114.878 201.791 117.297 202.89L118.063 201.205ZM112.251 197.096C110.579 195.357 109.263 193.361 108.302 191.104L106.598 191.83C107.646 194.291 109.086 196.476 110.917 198.38L112.251 197.096ZM108.305 191.112C107.372 188.868 106.904 186.502 106.904 184.005H105.053C105.053 186.74 105.566 189.348 106.595 191.823L108.305 191.112ZM106.904 184.005C106.904 181.529 107.361 179.172 108.273 176.926L106.557 176.229C105.554 178.701 105.053 181.295 105.053 184.005H106.904ZM108.271 176.93C109.21 174.649 110.504 172.631 112.154 170.869L110.803 169.603C108.997 171.532 107.582 173.741 106.559 176.225L108.271 176.93ZM112.154 170.87C113.824 169.089 115.757 167.7 117.958 166.7L117.192 165.014C114.768 166.116 112.637 167.647 110.803 169.603L112.154 170.87ZM117.962 166.698C120.168 165.683 122.569 165.171 125.177 165.171V163.32C122.319 163.32 119.652 163.882 117.188 165.016L117.962 166.698ZM138.19 183.935C138.19 181.494 137.615 179.235 136.46 177.176L134.845 178.081C135.838 179.852 136.338 181.797 136.338 183.935H138.19ZM136.464 177.183C135.339 175.134 133.796 173.477 131.843 172.225L130.844 173.783C132.534 174.867 133.863 176.293 134.841 178.074L136.464 177.183ZM131.843 172.225C129.86 170.954 127.605 170.327 125.107 170.327V172.178C127.28 172.178 129.183 172.719 130.844 173.783L131.843 172.225ZM125.107 170.327C122.652 170.327 120.411 170.956 118.411 172.222L119.401 173.786C121.091 172.717 122.985 172.178 125.107 172.178V170.327ZM118.411 172.222C116.433 173.474 114.865 175.143 113.717 177.215L115.336 178.112C116.337 176.307 117.689 174.87 119.401 173.786L118.411 172.222ZM113.719 177.211C112.566 179.267 111.989 181.502 111.989 183.9H113.841C113.841 181.813 114.339 179.89 115.334 178.117L113.719 177.211ZM111.989 183.9C111.989 186.322 112.578 188.582 113.756 190.662L115.367 189.75C114.35 187.953 113.841 186.008 113.841 183.9H111.989ZM113.759 190.666C114.93 192.711 116.507 194.363 118.481 195.613L119.471 194.048C117.755 192.962 116.389 191.531 115.365 189.745L113.759 190.666ZM118.485 195.615C120.504 196.877 122.73 197.508 125.142 197.508V195.656C123.07 195.656 121.185 195.119 119.467 194.045L118.485 195.615ZM125.142 197.508C127.555 197.508 129.761 196.877 131.738 195.61L130.738 194.051C129.071 195.12 127.214 195.656 125.142 195.656V197.508ZM131.733 195.613C133.709 194.362 135.276 192.707 136.425 190.659L134.81 189.753C133.81 191.535 132.457 192.963 130.743 194.048L131.733 195.613ZM136.423 190.662C137.6 188.583 138.19 186.336 138.19 183.935H136.338C136.338 186.018 135.83 187.951 134.812 189.75L136.423 190.662ZM151.768 202.328L151.113 202.982L151.125 202.994L151.136 203.004L151.768 202.328ZM150.752 199.875H151.678V199.874L150.752 199.875ZM150.682 155.977H149.756V155.979L150.682 155.977ZM151.558 153.84L150.815 153.288L150.812 153.292L151.558 153.84ZM154.15 152.579L154.145 151.653L154.131 151.653L154.15 152.579ZM165.186 152.509V151.583L165.18 151.583L165.186 152.509ZM174.47 154.191L174.124 155.049L174.133 155.053L174.47 154.191ZM181.127 159.201L180.379 159.746L180.382 159.751L181.127 159.201ZM173.91 182.568L173.587 181.701L173.585 181.701L173.91 182.568ZM163.68 184.425L163.701 185.351L163.708 185.351L163.68 184.425ZM157.724 184.565L157.702 183.64L156.796 183.661L156.798 184.567L157.724 184.565ZM157.759 199.945H158.685L158.685 199.943L157.759 199.945ZM156.708 202.363L157.339 203.04L157.34 203.039L156.708 202.363ZM173.489 161.478L172.999 162.263L173.003 162.265L173.489 161.478ZM157.689 159.551V158.625H156.761L156.763 159.553L157.689 159.551ZM157.724 177.488L156.798 177.49L156.8 178.437L157.746 178.414L157.724 177.488ZM163.575 177.348L163.554 176.423L163.552 176.423L163.575 177.348ZM154.255 202.383C153.533 202.383 152.929 202.145 152.4 201.651L151.136 203.004C152.008 203.818 153.063 204.234 154.255 204.234V202.383ZM152.423 201.673C151.914 201.164 151.678 200.592 151.678 199.91H149.826C149.826 201.097 150.267 202.136 151.113 202.982L152.423 201.673ZM151.678 199.91V199.875H149.826V199.91H151.678ZM151.678 199.874L151.608 155.976L149.756 155.979L149.826 199.877L151.678 199.874ZM151.608 155.977C151.608 155.627 151.775 155.107 152.304 154.389L150.812 153.292C150.173 154.161 149.756 155.066 149.756 155.977H151.608ZM152.301 154.392C152.719 153.83 153.301 153.523 154.17 153.505L154.131 151.653C152.757 151.682 151.611 152.216 150.815 153.288L152.301 154.392ZM154.156 153.505L165.192 153.435L165.18 151.583L154.145 151.653L154.156 153.505ZM165.186 153.435C168.494 153.435 171.469 153.978 174.124 155.049L174.817 153.332C171.913 152.161 168.699 151.583 165.186 151.583V153.435ZM174.133 155.053C176.786 156.092 178.856 157.658 180.379 159.746L181.875 158.655C180.127 156.258 177.76 154.485 174.808 153.329L174.133 155.053ZM180.382 159.751C181.897 161.799 182.688 164.442 182.688 167.749H184.54C184.54 164.142 183.673 161.086 181.871 158.65L180.382 159.751ZM182.688 167.749C182.688 171.566 181.853 174.535 180.27 176.738L181.773 177.818C183.647 175.21 184.54 171.826 184.54 167.749H182.688ZM180.27 176.738C178.658 178.982 176.443 180.638 173.587 181.701L174.233 183.436C177.402 182.257 179.929 180.386 181.773 177.818L180.27 176.738ZM173.585 181.701C170.707 182.781 167.4 183.386 163.651 183.5L163.708 185.351C167.62 185.231 171.133 184.598 174.235 183.435L173.585 181.701ZM163.658 183.5L157.702 183.64L157.746 185.491L163.701 185.351L163.658 183.5ZM156.798 184.567L156.833 199.947L158.685 199.943L158.65 184.563L156.798 184.567ZM156.833 199.945V199.98H158.685V199.945H156.833ZM156.833 199.98C156.833 200.651 156.595 201.202 156.076 201.686L157.34 203.039C158.222 202.216 158.685 201.179 158.685 199.98H156.833ZM156.077 201.685C155.577 202.15 154.988 202.383 154.255 202.383V204.234C155.438 204.234 156.484 203.836 157.339 203.04L156.077 201.685ZM177.533 167.784C177.533 164.616 176.384 162.179 173.976 160.69L173.003 162.265C174.752 163.346 175.681 165.112 175.681 167.784H177.533ZM173.98 160.693C171.721 159.281 168.677 158.625 164.941 158.625V160.477C168.492 160.477 171.147 161.105 172.999 162.263L173.98 160.693ZM164.941 158.625H157.689V160.477H164.941V158.625ZM156.763 159.553L156.798 177.49L158.65 177.487L158.615 159.549L156.763 159.553ZM157.746 178.414L163.597 178.274L163.552 176.423L157.702 176.563L157.746 178.414ZM163.596 178.274C167.782 178.179 171.156 177.466 173.633 176.05L172.715 174.442C170.614 175.643 167.588 176.331 163.554 176.423L163.596 178.274ZM173.633 176.05C176.318 174.516 177.533 171.637 177.533 167.784H175.681C175.681 171.264 174.608 173.361 172.715 174.442L173.633 176.05ZM221.661 154.051L221.268 154.889L221.276 154.892L221.661 154.051ZM229.509 159.761L228.825 160.386L228.828 160.389L229.509 159.761ZM234.659 168.099L233.795 168.432L233.796 168.434L234.659 168.099ZM234.659 188.034L233.797 187.697L233.795 187.7L234.659 188.034ZM221.766 201.732L221.392 200.885L221.39 200.886L221.766 201.732ZM201.797 201.732L201.417 202.576L201.423 202.579L201.797 201.732ZM194.019 196.162L193.332 196.782L193.338 196.789L194.019 196.162ZM189.044 187.929L188.177 188.252L188.178 188.254L189.044 187.929ZM189.115 167.994L188.254 167.651L188.252 167.657L189.115 167.994ZM194.265 159.726L193.581 159.102L193.581 159.102L194.265 159.726ZM202.042 154.016L201.655 153.175L201.652 153.176L202.042 154.016ZM202.778 161.758L202.26 160.991L202.257 160.993L202.778 161.758ZM196.542 168.905L195.718 168.483L195.716 168.486L196.542 168.905ZM199.45 191.222L198.777 191.858L198.781 191.862L199.45 191.222ZM205.02 195.216L204.628 196.055L204.64 196.06L205.02 195.216ZM218.613 195.146L218.221 194.307L218.218 194.309L218.613 195.146ZM224.289 191.082L223.625 190.436L223.621 190.441L224.289 191.082ZM228.178 185.336L229.025 185.709L229.027 185.705L228.178 185.336ZM227.197 168.87L226.376 169.299L226.38 169.307L227.197 168.87ZM211.817 152.874C215.266 152.874 218.412 153.55 221.268 154.889L222.054 153.212C218.932 151.749 215.515 151.023 211.817 151.023V152.874ZM221.276 154.892C224.177 156.219 226.691 158.049 228.825 160.386L230.192 159.137C227.889 156.615 225.172 154.638 222.046 153.209L221.276 154.892ZM228.828 160.389C230.965 162.706 232.621 165.384 233.795 168.432L235.523 167.766C234.268 164.508 232.49 161.628 230.189 159.133L228.828 160.389ZM233.796 168.434C234.967 171.452 235.555 174.666 235.555 178.084H237.407C237.407 174.449 236.78 171.006 235.522 167.764L233.796 168.434ZM235.555 178.084C235.555 181.502 234.967 184.704 233.797 187.697L235.521 188.371C236.78 185.151 237.407 181.719 237.407 178.084H235.555ZM233.795 187.7C232.646 190.676 231.014 193.295 228.901 195.566L230.257 196.827C232.535 194.38 234.29 191.557 235.523 188.367L233.795 187.7ZM228.901 195.566C226.793 197.831 224.293 199.603 221.392 200.885L222.141 202.579C225.266 201.198 227.974 199.28 230.257 196.827L228.901 195.566ZM221.39 200.886C218.531 202.159 215.356 202.803 211.852 202.803V204.655C215.588 204.655 219.023 203.967 222.143 202.578L221.39 200.886ZM211.852 202.803C208.275 202.803 205.053 202.159 202.171 200.885L201.423 202.579C204.567 203.968 208.048 204.655 211.852 204.655V202.803ZM202.177 200.888C199.274 199.583 196.785 197.799 194.7 195.535L193.338 196.789C195.598 199.243 198.294 201.172 201.417 202.576L202.177 200.888ZM194.707 195.542C192.638 193.248 191.039 190.605 189.911 187.603L188.178 188.254C189.385 191.465 191.103 194.31 193.332 196.782L194.707 195.542ZM189.912 187.605C188.785 184.586 188.219 181.345 188.219 177.874H186.367C186.367 181.55 186.968 185.012 188.177 188.252L189.912 187.605ZM188.219 177.874C188.219 174.504 188.806 171.326 189.977 168.331L188.252 167.657C186.994 170.875 186.367 174.283 186.367 177.874H188.219ZM189.975 168.337C191.172 165.331 192.83 162.671 194.948 160.35L193.581 159.102C191.308 161.592 189.533 164.444 188.254 167.651L189.975 168.337ZM194.948 160.35C197.085 158.011 199.578 156.181 202.432 154.855L201.652 153.176C198.574 154.606 195.882 156.583 193.581 159.102L194.948 160.35ZM202.43 154.856C205.289 153.538 208.414 152.874 211.817 152.874V151.023C208.166 151.023 204.774 151.737 201.655 153.175L202.43 154.856ZM211.957 158.135C208.33 158.135 205.087 159.081 202.26 160.991L203.296 162.525C205.794 160.838 208.67 159.986 211.957 159.986V158.135ZM202.257 160.993C199.484 162.883 197.303 165.385 195.718 168.483L197.366 169.327C198.817 166.492 200.794 164.23 203.299 162.523L202.257 160.993ZM195.716 168.486C194.152 171.566 193.374 174.935 193.374 178.574H195.225C195.225 175.208 195.942 172.129 197.367 169.324L195.716 168.486ZM193.374 178.574C193.374 181.078 193.853 183.477 194.812 185.764L196.52 185.048C195.657 182.991 195.225 180.835 195.225 178.574H193.374ZM194.812 185.764C195.766 188.039 197.088 190.071 198.777 191.858L200.122 190.586C198.588 188.962 197.388 187.118 196.52 185.048L194.812 185.764ZM198.781 191.862C200.472 193.626 202.422 195.025 204.629 196.055L205.412 194.377C203.414 193.444 201.651 192.181 200.118 190.581L198.781 191.862ZM204.64 196.06C206.889 197.073 209.284 197.578 211.817 197.578V195.726C209.538 195.726 207.402 195.274 205.4 194.372L204.64 196.06ZM211.817 197.578C214.356 197.578 216.757 197.047 219.009 195.983L218.218 194.309C216.219 195.253 214.089 195.726 211.817 195.726V197.578ZM219.005 195.984C221.257 194.932 223.243 193.51 224.957 191.722L223.621 190.441C222.065 192.063 220.267 193.351 218.221 194.307L219.005 195.984ZM224.952 191.727C226.686 189.945 228.045 187.938 229.025 185.709L227.33 184.964C226.441 186.985 225.208 188.808 223.625 190.436L224.952 191.727ZM229.027 185.705C230.009 183.445 230.505 181.125 230.505 178.75H228.653C228.653 180.859 228.215 182.929 227.329 184.967L229.027 185.705ZM230.505 178.75C230.505 174.989 229.678 171.544 228.013 168.433L226.38 169.307C227.891 172.129 228.653 175.27 228.653 178.75H230.505ZM228.017 168.441C226.384 165.321 224.168 162.819 221.369 160.953L220.342 162.493C222.868 164.178 224.88 166.44 226.376 169.299L228.017 168.441ZM221.369 160.953C218.551 159.074 215.405 158.135 211.957 158.135V159.986C215.048 159.986 217.835 160.822 220.342 162.493L221.369 160.953ZM269.798 153.245L269.468 154.11L269.47 154.111L269.798 153.245ZM280.203 162.634L279.356 163.006L279.359 163.014L280.203 162.634ZM279.468 166.558L278.813 165.903L279.468 166.558ZM275.123 166.978L274.61 167.748L274.62 167.755L274.63 167.762L275.123 166.978ZM273.792 165.472L274.64 165.099L274.639 165.098L273.792 165.472ZM269.343 160.672L268.879 161.473L268.882 161.475L269.343 160.672ZM257.957 159.376L257.759 158.471L257.756 158.472L257.957 159.376ZM253.788 160.882L254.202 161.71L254.213 161.704L253.788 160.882ZM250.424 169.676L249.73 170.288L249.739 170.299L250.424 169.676ZM252.772 171.498L252.349 172.321L252.355 172.324L252.361 172.328L252.772 171.498ZM259.498 173.6L259.35 174.514L259.352 174.514L259.498 173.6ZM274.037 176.718L273.672 177.568L273.676 177.57L274.037 176.718ZM280.414 194.83L279.633 194.332L280.414 194.83ZM275.544 199.665L276.043 200.445L275.544 199.665ZM268.992 202.573L269.234 203.467L269.24 203.465L268.992 202.573ZM253.577 202.082L253.257 202.951L253.264 202.954L253.577 202.082ZM246.606 197.948L245.984 198.635L245.989 198.639L246.606 197.948ZM242.051 191.642L242.9 191.272L242.895 191.262L242.051 191.642ZM242.752 187.788L243.406 188.443L242.752 187.788ZM247.166 187.368L246.653 188.138L246.663 188.145L246.673 188.151L247.166 187.368ZM248.462 188.875L247.598 189.207L247.606 189.226L247.614 189.244L248.462 188.875ZM253.682 194.48L253.229 195.287L253.235 195.29L253.682 194.48ZM268.117 195.636L268.375 196.525L268.384 196.522L268.117 195.636ZM273.161 192.868L273.786 193.552L273.787 193.551L273.161 192.868ZM273.967 185.021L273.313 185.675L273.322 185.685L273.332 185.694L273.967 185.021ZM271.27 183.164L270.903 184.014L270.905 184.015L271.27 183.164ZM264.158 181.202L264.022 182.118L264.03 182.119L264.158 181.202ZM256.625 180.046L256.472 180.959L256.48 180.96L256.625 180.046ZM249.619 177.769L249.2 178.595L249.201 178.595L249.619 177.769ZM244.574 173.705L243.862 174.297L243.87 174.306L244.574 173.705ZM244.083 160.462L243.302 159.964L243.301 159.967L244.083 160.462ZM248.778 155.767L249.283 156.543L249.285 156.542L248.778 155.767ZM262.196 152.804C264.775 152.804 267.196 153.241 269.468 154.11L270.129 152.38C267.635 151.427 264.989 150.953 262.196 150.953V152.804ZM269.47 154.111C271.776 154.984 273.779 156.187 275.487 157.718L276.722 156.339C274.833 154.646 272.631 153.328 270.126 152.379L269.47 154.111ZM275.487 157.718C277.191 159.245 278.477 161.007 279.356 163.006L281.051 162.261C280.061 160.01 278.615 158.035 276.722 156.339L275.487 157.718ZM279.359 163.014C279.518 163.367 279.593 163.717 279.593 164.07H281.444C281.444 163.443 281.309 162.835 281.048 162.254L279.359 163.014ZM279.593 164.07C279.593 164.773 279.347 165.369 278.813 165.903L280.122 167.212C280.99 166.345 281.444 165.283 281.444 164.07H279.593ZM278.813 165.903C278.309 166.407 277.727 166.648 277.015 166.648V168.5C278.218 168.5 279.271 168.063 280.122 167.212L278.813 165.903ZM277.015 166.648C276.589 166.648 276.127 166.516 275.617 166.195L274.63 167.762C275.381 168.235 276.181 168.5 277.015 168.5V166.648ZM275.637 166.208C275.125 165.867 274.813 165.493 274.64 165.099L272.945 165.845C273.285 166.618 273.86 167.249 274.61 167.748L275.637 166.208ZM274.639 165.098C273.664 162.892 272.037 161.149 269.803 159.869L268.882 161.475C270.806 162.578 272.145 164.034 272.945 165.846L274.639 165.098ZM269.807 159.871C267.592 158.587 265.045 157.959 262.196 157.959V159.811C264.765 159.811 266.983 160.375 268.879 161.473L269.807 159.871ZM262.196 157.959C260.789 157.959 259.309 158.132 257.759 158.471L258.155 160.28C259.594 159.965 260.94 159.811 262.196 159.811V157.959ZM257.756 158.472C256.208 158.816 254.743 159.345 253.362 160.06L254.213 161.704C255.449 161.065 256.762 160.59 258.158 160.279L257.756 158.472ZM253.374 160.054C251.963 160.759 250.792 161.667 249.881 162.785L251.318 163.954C252.042 163.064 252.996 162.313 254.202 161.71L253.374 160.054ZM249.881 162.785C248.926 163.96 248.447 165.335 248.447 166.873H250.299C250.299 165.748 250.638 164.788 251.318 163.954L249.881 162.785ZM248.447 166.873C248.447 168.169 248.878 169.322 249.73 170.288L251.119 169.063C250.569 168.441 250.299 167.725 250.299 166.873H248.447ZM249.739 170.299C250.509 171.145 251.379 171.823 252.349 172.321L253.195 170.674C252.436 170.284 251.741 169.748 251.109 169.053L249.739 170.299ZM252.361 172.328C254.484 173.376 256.815 174.103 259.35 174.514L259.646 172.686C257.276 172.302 255.124 171.627 253.182 170.668L252.361 172.328ZM259.352 174.514C261.831 174.911 264.334 175.297 266.86 175.672L267.131 173.84C264.612 173.467 262.117 173.082 259.645 172.685L259.352 174.514ZM266.86 175.672C269.309 176.034 271.579 176.668 273.672 177.568L274.403 175.867C272.152 174.899 269.727 174.224 267.131 173.84L266.86 175.672ZM273.676 177.57C274.967 178.117 276.212 178.876 277.411 179.853L278.581 178.417C277.258 177.339 275.864 176.486 274.399 175.865L273.676 177.57ZM277.411 179.853C278.576 180.802 279.526 181.956 280.264 183.323L281.894 182.444C281.044 180.869 279.939 179.524 278.581 178.417L277.411 179.853ZM280.264 183.323C280.973 184.637 281.345 186.208 281.345 188.069H283.196C283.196 185.959 282.773 184.074 281.894 182.444L280.264 183.323ZM281.345 188.069C281.345 190.483 280.765 192.559 279.633 194.332L281.194 195.329C282.538 193.224 283.196 190.793 283.196 188.069H281.345ZM279.633 194.332C278.47 196.153 276.945 197.67 275.045 198.885L276.043 200.445C278.16 199.091 279.881 197.385 281.194 195.329L279.633 194.332ZM275.045 198.885C273.116 200.119 271.018 201.051 268.745 201.681L269.24 203.465C271.685 202.787 273.954 201.781 276.043 200.445L275.045 198.885ZM268.751 201.679C266.488 202.29 264.28 202.593 262.126 202.593V204.445C264.456 204.445 266.826 204.117 269.234 203.467L268.751 201.679ZM262.126 202.593C259.188 202.593 256.446 202.13 253.891 201.211L253.264 202.954C256.034 203.95 258.99 204.445 262.126 204.445V202.593ZM253.897 201.214C251.337 200.27 249.115 198.951 247.223 197.258L245.989 198.639C248.066 200.496 250.493 201.933 253.257 202.951L253.897 201.214ZM247.227 197.262C245.337 195.55 243.897 193.555 242.9 191.272L241.203 192.013C242.307 194.541 243.904 196.75 245.984 198.634L247.227 197.262ZM242.895 191.262C242.734 190.903 242.662 190.565 242.662 190.241H240.81C240.81 190.851 240.948 191.447 241.207 192.022L242.895 191.262ZM242.662 190.241C242.662 189.529 242.903 188.947 243.406 188.443L242.097 187.134C241.246 187.985 240.81 189.038 240.81 190.241H242.662ZM243.406 188.443C243.94 187.909 244.537 187.663 245.239 187.663V185.812C244.027 185.812 242.965 186.266 242.097 187.134L243.406 188.443ZM245.239 187.663C245.683 187.663 246.149 187.803 246.653 188.138L247.68 186.598C246.922 186.092 246.104 185.812 245.239 185.812V187.663ZM246.673 188.151C247.16 188.458 247.447 188.812 247.598 189.207L249.326 188.542C249.011 187.722 248.433 187.072 247.659 186.585L246.673 188.151ZM247.614 189.244C248.729 191.806 250.618 193.82 253.229 195.287L254.136 193.673C251.842 192.384 250.251 190.661 249.311 188.505L247.614 189.244ZM253.235 195.29C255.842 196.73 258.814 197.438 262.126 197.438V195.586C259.085 195.586 256.428 194.939 254.13 193.67L253.235 195.29ZM262.126 197.438C264.203 197.438 266.287 197.132 268.375 196.525L267.858 194.747C265.929 195.308 264.019 195.586 262.126 195.586V197.438ZM268.384 196.522C270.507 195.881 272.315 194.896 273.786 193.552L272.537 192.185C271.298 193.317 269.744 194.177 267.849 194.75L268.384 196.522ZM273.787 193.551C275.364 192.107 276.154 190.256 276.154 188.069H274.303C274.303 189.759 273.715 191.107 272.536 192.185L273.787 193.551ZM276.154 188.069C276.154 186.596 275.643 185.33 274.603 184.348L273.332 185.694C273.973 186.3 274.303 187.066 274.303 188.069H276.154ZM274.622 184.366C273.728 183.472 272.732 182.784 271.634 182.313L270.905 184.015C271.769 184.385 272.571 184.934 273.313 185.675L274.622 184.366ZM271.637 182.314C269.337 181.322 266.886 180.646 264.285 180.285L264.03 182.119C266.475 182.459 268.764 183.091 270.903 184.014L271.637 182.314ZM264.293 180.286C261.774 179.913 259.267 179.528 256.771 179.132L256.48 180.96C258.982 181.358 261.496 181.744 264.022 182.118L264.293 180.286ZM256.779 179.133C254.368 178.727 252.122 177.996 250.036 176.942L249.201 178.595C251.46 179.736 253.885 180.524 256.472 180.959L256.779 179.133ZM250.037 176.943C248.314 176.07 246.726 174.797 245.277 173.103L243.87 174.306C245.457 176.162 247.233 177.599 249.2 178.595L250.037 176.943ZM245.286 173.113C243.953 171.509 243.257 169.453 243.257 166.873H241.406C241.406 169.805 242.205 172.303 243.862 174.296L245.286 173.113ZM243.257 166.873C243.257 164.599 243.802 162.638 244.865 160.957L243.301 159.967C242.029 161.976 241.406 164.289 241.406 166.873H243.257ZM244.864 160.959C245.981 159.207 247.45 157.736 249.283 156.543L248.273 154.991C246.228 156.321 244.568 157.979 243.302 159.964L244.864 160.959ZM249.285 156.542C251.165 155.311 253.226 154.38 255.474 153.751L254.974 151.968C252.551 152.647 250.315 153.654 248.271 154.993L249.285 156.542ZM255.474 153.751C257.732 153.119 259.972 152.804 262.196 152.804V150.953C259.795 150.953 257.387 151.292 254.974 151.968L255.474 153.751Z" fill="#27135F" style="fill:#27135F;fill:color(display-p3 0.1529 0.0745 0.3725);fill-opacity:1;" mask="url(#path-1-outside-1_72_2)"/>
<path d="M152.612 122.009H135.17V61.0044C135.17 54.9919 134.036 49.348 131.767 44.0729C129.498 38.7977 126.378 34.2033 122.408 30.2894C118.494 26.3189 113.871 23.1992 108.539 20.9303C103.264 18.6047 97.6201 17.4419 91.6076 17.4419H82.2485V122.009H64.8065V-0.00012207H91.6076C97.1664 -0.00012207 102.498 0.737264 107.603 2.21204C112.765 3.63009 117.586 5.64372 122.067 8.25293C126.548 10.8621 130.632 13.9819 134.319 17.6121C138.006 21.2423 141.211 25.2695 143.934 29.6938C146.6 25.2695 149.776 21.2423 153.463 17.6121C157.15 13.9819 161.234 10.8621 165.715 8.25293C170.196 5.64372 174.989 3.63009 180.094 2.21204C185.256 0.737264 190.616 -0.00012207 196.175 -0.00012207H223.061V122.009H205.619V17.4419H196.175C190.162 17.4419 184.518 18.6047 179.243 20.9303C173.968 23.1992 169.345 26.3189 165.375 30.2894C161.461 34.2033 158.341 38.7977 156.015 44.0729C153.747 49.348 152.612 54.9919 152.612 61.0044V122.009Z" fill="#27135F" style="fill:#27135F;fill:color(display-p3 0.1529 0.0745 0.3725);fill-opacity:1;"/>
<path d="M161.269 109.048C161.269 118.251 153.808 125.712 144.604 125.712C135.401 125.712 127.94 118.251 127.94 109.048C127.94 99.8441 135.401 92.3831 144.604 92.3831C153.808 92.3831 161.269 99.8441 161.269 109.048Z" fill="#27135F" style="fill:#27135F;fill:color(display-p3 0.1529 0.0745 0.3725);fill-opacity:1;"/>
<path d="M40.3672 236.56C40.2568 235.627 39.8088 234.903 39.0232 234.387C38.2377 233.872 37.2742 233.614 36.1327 233.614C35.2981 233.614 34.5678 233.749 33.9418 234.019C33.322 234.289 32.8372 234.66 32.4874 235.133C32.1437 235.605 31.9719 236.142 31.9719 236.744C31.9719 237.247 32.0915 237.68 32.3309 238.042C32.5764 238.398 32.8893 238.695 33.2698 238.935C33.6503 239.168 34.0492 239.361 34.4665 239.515C34.8839 239.662 35.2674 239.782 35.6172 239.874L37.532 240.389C38.0229 240.518 38.5691 240.696 39.1705 240.923C39.7781 241.15 40.358 241.46 40.9104 241.853C41.4688 242.239 41.9291 242.736 42.2912 243.344C42.6533 243.952 42.8343 244.697 42.8343 245.581C42.8343 246.6 42.5673 247.52 42.0334 248.343C41.5057 249.165 40.7324 249.819 39.7137 250.303C38.7011 250.788 37.4706 251.031 36.0223 251.031C34.6721 251.031 33.503 250.813 32.515 250.377C31.5331 249.941 30.7598 249.334 30.1952 248.554C29.6367 247.775 29.3207 246.87 29.247 245.839H31.6036C31.665 246.551 31.9044 247.14 32.3217 247.606C32.7451 248.066 33.279 248.41 33.9234 248.637C34.5739 248.858 35.2736 248.969 36.0223 248.969C36.8937 248.969 37.6762 248.827 38.3697 248.545C39.0631 248.257 39.6124 247.858 40.0174 247.348C40.4225 246.833 40.625 246.232 40.625 245.544C40.625 244.918 40.4501 244.409 40.1003 244.016C39.7505 243.623 39.2902 243.304 38.7195 243.059C38.1487 242.813 37.532 242.598 36.8692 242.414L34.5494 241.752C33.0765 241.328 31.9105 240.724 31.0513 239.938C30.1921 239.153 29.7625 238.125 29.7625 236.854C29.7625 235.799 30.0479 234.878 30.6187 234.093C31.1955 233.301 31.9688 232.687 32.9384 232.251C33.9142 231.81 35.0035 231.589 36.2064 231.589C37.4215 231.589 38.5016 231.807 39.4467 232.242C40.3918 232.672 41.1405 233.261 41.6928 234.01C42.2513 234.758 42.5459 235.608 42.5766 236.56H40.3672ZM52.0375 250.994C50.761 250.994 49.641 250.69 48.6775 250.082C47.7201 249.475 46.9714 248.625 46.4313 247.533C45.8974 246.44 45.6305 245.164 45.6305 243.703C45.6305 242.23 45.8974 240.944 46.4313 239.846C46.9714 238.747 47.7201 237.894 48.6775 237.287C49.641 236.679 50.761 236.376 52.0375 236.376C53.314 236.376 54.4309 236.679 55.3883 237.287C56.3518 237.894 57.1005 238.747 57.6344 239.846C58.1744 240.944 58.4445 242.23 58.4445 243.703C58.4445 245.164 58.1744 246.44 57.6344 247.533C57.1005 248.625 56.3518 249.475 55.3883 250.082C54.4309 250.69 53.314 250.994 52.0375 250.994ZM52.0375 249.042C53.0071 249.042 53.8049 248.794 54.4309 248.297C55.0569 247.799 55.5202 247.146 55.8209 246.336C56.1216 245.526 56.272 244.648 56.272 243.703C56.272 242.758 56.1216 241.877 55.8209 241.061C55.5202 240.245 55.0569 239.585 54.4309 239.082C53.8049 238.579 53.0071 238.327 52.0375 238.327C51.0678 238.327 50.27 238.579 49.644 239.082C49.0181 239.585 48.5547 240.245 48.254 241.061C47.9533 241.877 47.803 242.758 47.803 243.703C47.803 244.648 47.9533 245.526 48.254 246.336C48.5547 247.146 49.0181 247.799 49.644 248.297C50.27 248.794 51.0678 249.042 52.0375 249.042ZM63.9332 231.846V250.699H61.7607V231.846H63.9332ZM76.8232 244.918V236.56H78.9957V250.699H76.8232V248.306H76.6759C76.3445 249.024 75.829 249.634 75.1294 250.138C74.4298 250.635 73.546 250.883 72.4782 250.883C71.5945 250.883 70.8089 250.69 70.1216 250.303C69.4343 249.911 68.8942 249.321 68.5014 248.536C68.1087 247.744 67.9123 246.747 67.9123 245.544V236.56H70.0848V245.397C70.0848 246.428 70.3732 247.25 70.9501 247.864C71.5331 248.478 72.2757 248.784 73.1778 248.784C73.7179 248.784 74.2671 248.646 74.8256 248.37C75.3902 248.094 75.8627 247.671 76.2432 247.1C76.6299 246.529 76.8232 245.802 76.8232 244.918ZM92.9903 239.726L91.0387 240.279C90.916 239.953 90.7349 239.637 90.4956 239.33C90.2624 239.017 89.9433 238.76 89.5382 238.557C89.1332 238.355 88.6146 238.253 87.9825 238.253C87.1172 238.253 86.3961 238.453 85.8192 238.852C85.2485 239.245 84.9631 239.745 84.9631 240.352C84.9631 240.892 85.1595 241.319 85.5523 241.632C85.945 241.945 86.5587 242.206 87.3933 242.414L89.4922 242.93C90.7564 243.237 91.6984 243.706 92.3183 244.338C92.9381 244.964 93.248 245.771 93.248 246.759C93.248 247.569 93.0148 248.294 92.5484 248.932C92.0881 249.57 91.4437 250.073 90.6153 250.441C89.7868 250.81 88.8233 250.994 87.7247 250.994C86.2826 250.994 85.0889 250.681 84.1438 250.055C83.1987 249.429 82.6004 248.514 82.3488 247.312L84.4108 246.796C84.6072 247.557 84.9784 248.128 85.5246 248.508C86.077 248.889 86.7981 249.079 87.6879 249.079C88.7005 249.079 89.5045 248.864 90.0998 248.435C90.7012 247.999 91.0019 247.477 91.0019 246.87C91.0019 246.379 90.8301 245.968 90.4864 245.636C90.1427 245.299 89.6149 245.047 88.903 244.881L86.5464 244.329C85.2515 244.022 84.3003 243.547 83.6927 242.902C83.0913 242.252 82.7906 241.439 82.7906 240.463C82.7906 239.665 83.0146 238.959 83.4626 238.345C83.9167 237.732 84.5335 237.25 85.3129 236.9C86.0984 236.55 86.9883 236.376 87.9825 236.376C89.3817 236.376 90.4802 236.682 91.2781 237.296C92.082 237.91 92.6527 238.72 92.9903 239.726ZM96.5183 250.699V236.56H98.6907V250.699H96.5183ZM97.6229 234.203C97.1995 234.203 96.8343 234.059 96.5275 233.77C96.2268 233.482 96.0764 233.135 96.0764 232.73C96.0764 232.325 96.2268 231.978 96.5275 231.69C96.8343 231.402 97.1995 231.257 97.6229 231.257C98.0464 231.257 98.4084 231.402 98.7092 231.69C99.016 231.978 99.1694 232.325 99.1694 232.73C99.1694 233.135 99.016 233.482 98.7092 233.77C98.4084 234.059 98.0464 234.203 97.6229 234.203ZM110.255 250.699V231.846H112.538V241.199H112.759L121.228 231.846H124.211L116.294 240.352L124.211 250.699H121.449L114.895 241.936L112.538 244.587V250.699H110.255ZM131.032 251.031C130.136 251.031 129.323 250.862 128.592 250.524C127.862 250.181 127.282 249.687 126.853 249.042C126.423 248.392 126.208 247.606 126.208 246.686C126.208 245.876 126.368 245.219 126.687 244.716C127.006 244.206 127.432 243.807 127.966 243.519C128.5 243.231 129.089 243.016 129.734 242.875C130.384 242.727 131.038 242.611 131.695 242.525C132.554 242.414 133.25 242.331 133.784 242.276C134.324 242.215 134.717 242.114 134.963 241.972C135.214 241.831 135.34 241.586 135.34 241.236V241.162C135.34 240.254 135.091 239.548 134.594 239.045C134.103 238.542 133.358 238.29 132.357 238.29C131.32 238.29 130.507 238.517 129.918 238.971C129.329 239.426 128.915 239.91 128.675 240.426L126.613 239.689C126.981 238.83 127.472 238.161 128.086 237.683C128.706 237.198 129.381 236.86 130.111 236.67C130.848 236.474 131.572 236.376 132.284 236.376C132.738 236.376 133.26 236.431 133.849 236.541C134.444 236.646 135.018 236.863 135.57 237.195C136.129 237.526 136.592 238.026 136.96 238.695C137.328 239.364 137.512 240.26 137.512 241.383V250.699H135.34V248.784H135.23C135.082 249.091 134.837 249.42 134.493 249.769C134.149 250.119 133.692 250.417 133.121 250.662C132.551 250.908 131.854 251.031 131.032 251.031ZM131.363 249.079C132.222 249.079 132.947 248.91 133.536 248.573C134.131 248.235 134.579 247.799 134.88 247.266C135.187 246.732 135.34 246.17 135.34 245.581V243.593C135.248 243.703 135.045 243.804 134.732 243.896C134.426 243.982 134.07 244.059 133.665 244.127C133.266 244.188 132.876 244.243 132.496 244.292C132.121 244.335 131.817 244.372 131.584 244.403C131.02 244.476 130.492 244.596 130.001 244.762C129.516 244.921 129.123 245.164 128.823 245.489C128.528 245.808 128.381 246.244 128.381 246.796C128.381 247.551 128.66 248.122 129.218 248.508C129.783 248.889 130.498 249.079 131.363 249.079ZM151.493 239.726L149.542 240.279C149.419 239.953 149.238 239.637 148.999 239.33C148.765 239.017 148.446 238.76 148.041 238.557C147.636 238.355 147.118 238.253 146.486 238.253C145.62 238.253 144.899 238.453 144.322 238.852C143.751 239.245 143.466 239.745 143.466 240.352C143.466 240.892 143.662 241.319 144.055 241.632C144.448 241.945 145.062 242.206 145.896 242.414L147.995 242.93C149.259 243.237 150.201 243.706 150.821 244.338C151.441 244.964 151.751 245.771 151.751 246.759C151.751 247.569 151.518 248.294 151.051 248.932C150.591 249.57 149.947 250.073 149.118 250.441C148.29 250.81 147.326 250.994 146.228 250.994C144.786 250.994 143.592 250.681 142.647 250.055C141.702 249.429 141.103 248.514 140.852 247.312L142.914 246.796C143.11 247.557 143.481 248.128 144.028 248.508C144.58 248.889 145.301 249.079 146.191 249.079C147.204 249.079 148.007 248.864 148.603 248.435C149.204 247.999 149.505 247.477 149.505 246.87C149.505 246.379 149.333 245.968 148.989 245.636C148.646 245.299 148.118 245.047 147.406 244.881L145.049 244.329C143.755 244.022 142.803 243.547 142.196 242.902C141.594 242.252 141.294 241.439 141.294 240.463C141.294 239.665 141.518 238.959 141.966 238.345C142.42 237.732 143.037 237.25 143.816 236.9C144.601 236.55 145.491 236.376 146.486 236.376C147.885 236.376 148.983 236.682 149.781 237.296C150.585 237.91 151.156 238.72 151.493 239.726ZM155.021 250.699V236.56H157.194V250.699H155.021ZM156.126 234.203C155.702 234.203 155.337 234.059 155.03 233.77C154.73 233.482 154.579 233.135 154.579 232.73C154.579 232.325 154.73 231.978 155.03 231.69C155.337 231.402 155.702 231.257 156.126 231.257C156.549 231.257 156.911 231.402 157.212 231.69C157.519 231.978 157.672 232.325 157.672 232.73C157.672 233.135 157.519 233.482 157.212 233.77C156.911 234.059 156.549 234.203 156.126 234.203ZM161.173 250.699V236.56H163.272V238.695H163.419C163.677 237.996 164.143 237.428 164.818 236.992C165.493 236.557 166.254 236.339 167.101 236.339C167.261 236.339 167.46 236.342 167.699 236.348C167.939 236.354 168.12 236.363 168.243 236.376V238.585C168.169 238.566 168 238.539 167.736 238.502C167.479 238.459 167.205 238.438 166.917 238.438C166.23 238.438 165.616 238.582 165.076 238.87C164.542 239.153 164.119 239.545 163.806 240.048C163.499 240.546 163.345 241.113 163.345 241.752V250.699H161.173ZM190.775 231.846H193.058V244.329C193.058 245.618 192.754 246.768 192.147 247.781C191.545 248.788 190.696 249.582 189.597 250.165C188.498 250.742 187.21 251.031 185.731 251.031C184.252 251.031 182.963 250.742 181.864 250.165C180.766 249.582 179.913 248.788 179.305 247.781C178.704 246.768 178.403 245.618 178.403 244.329V231.846H180.686V244.145C180.686 245.065 180.889 245.885 181.294 246.603C181.699 247.315 182.276 247.876 183.024 248.287C183.779 248.692 184.681 248.895 185.731 248.895C186.78 248.895 187.682 248.692 188.437 248.287C189.192 247.876 189.769 247.315 190.168 246.603C190.573 245.885 190.775 245.065 190.775 244.145V231.846ZM197.617 231.846H200.342L206.749 247.496H206.97L213.377 231.846H216.102V250.699H213.966V236.376H213.782L207.891 250.699H205.829L199.937 236.376H199.753V250.699H197.617V231.846ZM220.679 250.699V231.846H222.962V241.199H223.183L231.652 231.846H234.635L226.718 240.352L234.635 250.699H231.873L225.319 241.936L222.962 244.587V250.699H220.679ZM237.59 231.846H240.314L246.721 247.496H246.942L253.349 231.846H256.074V250.699H253.939V236.376H253.754L247.863 250.699H245.801L239.909 236.376H239.725V250.699H237.59V231.846Z" fill="#27135F" style="fill:#27135F;fill:color(display-p3 0.1529 0.0745 0.3725);fill-opacity:1;"/>
</svg>
