<svg width="145" height="35" viewBox="0 0 145 35" fill="none" xmlns="http://www.w3.org/2000/svg">
<path d="M19.4167 26.9802H15.5597V13.4901C15.5597 12.1605 15.3089 10.9125 14.8071 9.74599C14.3054 8.57948 13.6155 7.56349 12.7375 6.69802C11.872 5.82 10.8498 5.13013 9.67073 4.6284C8.50422 4.11414 7.25618 3.857 5.92661 3.857H3.857V26.9802H0V0H5.92661C7.15584 0 8.33489 0.16306 9.46377 0.489181C10.6052 0.802758 11.6714 1.24804 12.6623 1.82502C13.6532 2.402 14.5563 3.09187 15.3716 3.89463C16.1869 4.69739 16.8956 5.58795 17.4976 6.56631C18.0871 5.58795 18.7896 4.69739 19.6049 3.89463C20.4202 3.09187 21.3233 2.402 22.3142 1.82502C23.3051 1.24804 24.365 0.802758 25.4938 0.489181C26.6353 0.16306 27.8206 0 29.0498 0H34.9952V26.9802H31.1382V3.857H29.0498C27.7202 3.857 26.4722 4.11414 25.3057 4.6284C24.1392 5.13013 23.1169 5.82 22.2389 6.69802C21.3734 7.56349 20.6836 8.57948 20.1693 9.74599C19.6676 10.9125 19.4167 12.1605 19.4167 13.4901V26.9802Z" fill="white" style="fill:white;fill-opacity:1;"/>
<path d="M21.331 24.114C21.331 26.1492 19.6812 27.7991 17.646 27.7991C15.6107 27.7991 13.9609 26.1492 13.9609 24.114C13.9609 22.0788 15.6107 20.429 17.646 20.429C19.6812 20.429 21.331 22.0788 21.331 24.114Z" fill="white" style="fill:white;fill-opacity:1;"/>
<mask id="path-2-outside-1_64_2" maskUnits="userSpaceOnUse" x="48.5714" y="6.07141" width="95" height="19" fill="black">
<rect fill="white" x="48.5714" y="6.07141" width="95" height="19"/>
<path d="M50.6734 24.0714C50.3524 24.0714 50.0745 23.9579 49.8397 23.7309C49.6126 23.496 49.4991 23.2181 49.4991 22.8971L49.4639 8.32409C49.456 8.25363 49.4521 8.18317 49.4521 8.11271C49.4521 8.00311 49.4756 7.89742 49.5226 7.79565C49.5774 7.69388 49.64 7.58819 49.7105 7.47859C49.8984 7.17327 50.1685 7.02062 50.5207 7.02062C51.0844 7.02062 51.4719 7.23982 51.6833 7.67822L57.9658 17.9298L63.7786 7.66648C64.0134 7.27505 64.3305 7.07933 64.7297 7.07933C65.0664 7.07933 65.3599 7.18893 65.6105 7.40813C65.861 7.62734 65.9862 7.90917 65.9862 8.25363V22.9441C65.9862 23.2651 65.8688 23.543 65.6339 23.7778C65.4069 24.0049 65.1329 24.1184 64.8119 24.1184C64.491 24.1184 64.213 24.0049 63.9782 23.7778C63.7512 23.543 63.6376 23.2651 63.6376 22.9441V12.4459L59.0227 20.8304C58.9365 20.9713 58.8035 21.1083 58.6234 21.2414C58.4433 21.3666 58.2476 21.4292 58.0362 21.4292C57.5822 21.4292 57.2338 21.2414 56.9911 20.8656L51.8125 12.3989L51.8477 22.8854V22.8971C51.8477 23.2181 51.7303 23.496 51.4954 23.7309C51.2684 23.9579 50.9944 24.0714 50.6734 24.0714ZM69.2508 10.0033C68.8907 10.0033 68.5971 9.89373 68.3701 9.67453C68.143 9.4475 68.0256 9.16958 68.0178 8.84078L67.9943 7.94831C67.9943 7.65082 68.1274 7.41205 68.3935 7.23199C68.6597 7.0441 68.9142 6.95016 69.1568 6.95016C69.4856 6.95016 69.7596 7.06367 69.9788 7.2907C70.2059 7.51774 70.3233 7.79174 70.3311 8.11271L70.3429 8.81729C70.3429 9.12261 70.2411 9.39661 70.0376 9.6393C69.834 9.88199 69.5718 10.0033 69.2508 10.0033ZM67.9825 12.2228C67.9825 11.9253 68.1078 11.6826 68.3583 11.4947C68.6088 11.3068 68.8515 11.2129 69.0864 11.2129C69.4308 11.2129 69.7244 11.3146 69.9671 11.5182C70.2098 11.7217 70.3311 11.9918 70.3311 12.3284V12.3402L70.3546 23.2142C70.3546 23.5273 70.2372 23.7935 70.0023 24.0127C69.7753 24.2319 69.5013 24.3415 69.1803 24.3415C68.8515 24.3415 68.5736 24.2319 68.3466 24.0127C68.1195 23.7857 68.006 23.5156 68.006 23.2024L67.9825 12.2228ZM82.3912 11.2129C82.673 11.2129 82.9274 11.3264 83.1545 11.5534C83.3893 11.7804 83.5068 12.031 83.5068 12.305C83.5068 12.5476 83.4676 12.7473 83.3893 12.9038L78.4338 23.6252C78.2224 24.0714 77.8623 24.2945 77.3534 24.2945C76.8289 24.2945 76.4766 24.0558 76.2966 23.5782L71.8577 12.8569C71.7951 12.7238 71.7638 12.5398 71.7638 12.305C71.7638 12.0544 71.8695 11.8117 72.0808 11.5769C72.3 11.3342 72.5427 11.2129 72.8089 11.2129C73.4195 11.2129 73.8266 11.4555 74.0302 11.9409L77.4474 20.2549L81.2638 11.8939C81.4752 11.4399 81.851 11.2129 82.3912 11.2129ZM90.529 11.1541C91.1084 11.1541 91.672 11.2716 92.22 11.5064C92.7759 11.7335 93.2691 12.0231 93.6997 12.3754C94.1381 12.7199 94.4629 13.0761 94.6743 13.444L94.8035 12.3167C94.8035 11.9957 94.8974 11.7217 95.0853 11.4947C95.2732 11.2598 95.5276 11.1424 95.8486 11.1424C96.1696 11.1424 96.4436 11.2598 96.6706 11.4947C96.9055 11.7217 97.0229 11.9957 97.0229 12.3167V12.3402L96.9994 23.2142C96.9994 23.5351 96.882 23.8131 96.6471 24.0479C96.4201 24.275 96.1461 24.3885 95.8251 24.3885C95.5042 24.3885 95.2497 24.275 95.0618 24.0479C94.8739 23.8131 94.78 23.5351 94.78 23.2142L94.6508 22.2747C94.2437 22.9715 93.6488 23.4921 92.8659 23.8366C92.083 24.1732 91.2963 24.3415 90.5056 24.3415C89.6209 24.3415 88.7911 24.1693 88.0161 23.8248C87.241 23.4725 86.5599 22.9911 85.9728 22.3804C85.3856 21.7698 84.9237 21.0691 84.5871 20.2784C84.2583 19.4877 84.0939 18.654 84.0939 17.7772C84.0939 16.9082 84.2544 16.0784 84.5754 15.2877C84.9042 14.4891 85.3582 13.7807 85.9375 13.1622C86.5247 12.5359 87.2058 12.0466 87.9808 11.6943C88.7637 11.3342 89.6131 11.1541 90.529 11.1541ZM94.5804 17.7537C94.5804 16.9865 94.4003 16.2819 94.0402 15.64C93.6879 14.998 93.2064 14.4813 92.5958 14.0899C91.9852 13.6985 91.2884 13.5027 90.5056 13.5027C89.7384 13.5027 89.0455 13.6985 88.4271 14.0899C87.8086 14.4813 87.3193 15.0019 86.9592 15.6517C86.5991 16.2936 86.419 16.9904 86.419 17.7419C86.419 18.5013 86.603 19.2059 86.9709 19.8557C87.3389 20.4976 87.8321 21.0143 88.4505 21.4058C89.0768 21.7972 89.7658 21.9929 90.5173 21.9929C91.2689 21.9929 91.9499 21.7972 92.5606 21.4058C93.179 21.0143 93.6683 20.4976 94.0285 19.8557C94.3964 19.2059 94.5804 18.5052 94.5804 17.7537ZM100.276 24.2476C99.9547 24.2476 99.6768 24.138 99.442 23.9188C99.2149 23.6917 99.1014 23.4216 99.1014 23.1085V23.0967L99.0779 8.3828C99.0779 8.17143 99.1758 7.93265 99.3715 7.66648C99.5751 7.39248 99.8647 7.25156 100.24 7.24373L103.94 7.22025C105.083 7.22025 106.12 7.40813 107.051 7.78391C107.991 8.15186 108.735 8.7116 109.283 9.46315C109.838 10.2147 110.116 11.1698 110.116 12.3284C110.116 13.6515 109.827 14.7162 109.247 15.5225C108.668 16.3289 107.873 16.9199 106.864 17.2957C105.861 17.6715 104.718 17.879 103.435 17.9181L101.438 17.9651L101.45 23.1202V23.132C101.45 23.4451 101.333 23.7113 101.098 23.9305C100.871 24.1419 100.597 24.2476 100.276 24.2476ZM107.768 12.3402C107.768 11.3616 107.419 10.657 106.723 10.2264C106.034 9.79587 105.079 9.58058 103.857 9.58058H101.427L101.438 15.593L103.399 15.546C104.777 15.5147 105.85 15.2798 106.617 14.8414C107.384 14.403 107.768 13.5693 107.768 12.3402ZM119.569 7.03236C120.767 7.03236 121.867 7.26722 122.869 7.73694C123.879 8.19883 124.756 8.83686 125.5 9.65104C126.243 10.4574 126.819 11.389 127.226 12.4459C127.633 13.4949 127.836 14.6105 127.836 15.7926C127.836 16.9747 127.633 18.0864 127.226 19.1276C126.827 20.161 126.259 21.073 125.523 21.8637C124.787 22.6544 123.914 23.2729 122.904 23.7191C121.902 24.1654 120.795 24.3885 119.581 24.3885C118.344 24.3885 117.221 24.1654 116.211 23.7191C115.201 23.2651 114.332 22.6427 113.604 21.852C112.884 21.0535 112.328 20.1336 111.936 19.0924C111.545 18.0434 111.349 16.9199 111.349 15.7222C111.349 14.5557 111.553 13.4519 111.96 12.4106C112.375 11.3694 112.95 10.4456 113.686 9.6393C114.43 8.82512 115.299 8.18708 116.293 7.72519C117.295 7.2633 118.387 7.03236 119.569 7.03236ZM119.616 9.41618C118.458 9.41618 117.432 9.71759 116.54 10.3204C115.655 10.9232 114.958 11.7217 114.449 12.716C113.948 13.7024 113.698 14.7827 113.698 15.957C113.698 16.7555 113.851 17.5188 114.156 18.2469C114.461 18.975 114.884 19.6247 115.424 20.1962C115.964 20.7599 116.587 21.2061 117.291 21.5349C118.004 21.8559 118.763 22.0164 119.569 22.0164C120.376 22.0164 121.135 21.8481 121.848 21.5114C122.568 21.1748 123.202 20.7207 123.75 20.1493C124.306 19.5778 124.74 18.9358 125.053 18.2234C125.367 17.5032 125.523 16.7673 125.523 16.0157C125.523 14.8023 125.257 13.6985 124.725 12.7042C124.2 11.7021 123.492 10.9036 122.599 10.3086C121.707 9.71367 120.712 9.41618 119.616 9.41618ZM136.456 7.00887C137.356 7.00887 138.206 7.16153 139.004 7.46685C139.81 7.77217 140.515 8.19491 141.118 8.73509C141.721 9.27527 142.179 9.90156 142.492 10.614C142.562 10.7705 142.597 10.931 142.597 11.0954C142.597 11.4164 142.48 11.6943 142.245 11.9292C142.018 12.1562 141.744 12.2697 141.423 12.2697C141.212 12.2697 141 12.2032 140.789 12.0701C140.578 11.9292 140.429 11.7609 140.343 11.5651C140.045 10.8919 139.548 10.3556 138.851 9.95636C138.162 9.5571 137.364 9.35747 136.456 9.35747C136.01 9.35747 135.536 9.41227 135.035 9.52187C134.542 9.63147 134.076 9.79979 133.637 10.0268C133.199 10.246 132.843 10.5239 132.569 10.8606C132.295 11.1972 132.158 11.5886 132.158 12.0349C132.158 12.395 132.275 12.7081 132.51 12.9743C132.745 13.2326 133.007 13.4362 133.297 13.5849C133.978 13.9216 134.73 14.1564 135.552 14.2895C136.381 14.4226 137.219 14.5518 138.065 14.677C138.91 14.8023 139.697 15.0215 140.425 15.3346C140.887 15.5304 141.329 15.8004 141.752 16.1449C142.175 16.4894 142.519 16.9082 142.785 17.4014C143.051 17.8946 143.185 18.4739 143.185 19.1394C143.185 20.0005 142.977 20.756 142.562 21.4058C142.147 22.0555 141.603 22.5957 140.93 23.0263C140.257 23.4569 139.525 23.7818 138.734 24.001C137.951 24.2123 137.184 24.318 136.432 24.318C135.415 24.318 134.46 24.1575 133.567 23.8366C132.675 23.5077 131.896 23.0459 131.23 22.4509C130.565 21.8481 130.056 21.1435 129.704 20.3371C129.633 20.1806 129.598 20.024 129.598 19.8674C129.598 19.5465 129.711 19.2724 129.938 19.0454C130.173 18.8106 130.451 18.6931 130.772 18.6931C130.991 18.6931 131.207 18.7636 131.418 18.9045C131.629 19.0376 131.774 19.2059 131.853 19.4095C132.197 20.2001 132.78 20.8264 133.602 21.2883C134.424 21.7424 135.368 21.9694 136.432 21.9694C137.098 21.9694 137.767 21.8716 138.44 21.6758C139.114 21.4723 139.677 21.1631 140.131 20.7482C140.593 20.3254 140.824 19.7891 140.824 19.1394C140.824 18.7244 140.683 18.3839 140.401 18.1177C140.127 17.8437 139.826 17.6363 139.497 17.4953C138.754 17.1744 137.959 16.9552 137.113 16.8377C136.268 16.7125 135.426 16.5833 134.589 16.4502C133.751 16.3093 132.968 16.0549 132.24 15.6869C131.622 15.3738 131.058 14.9197 130.549 14.3247C130.048 13.7219 129.798 12.9586 129.798 12.0349C129.798 11.2207 129.993 10.5044 130.385 9.8859C130.784 9.25961 131.308 8.73509 131.958 8.31234C132.616 7.88177 133.336 7.55688 134.119 7.33768C134.902 7.11847 135.681 7.00887 136.456 7.00887Z"/>
</mask>
<path d="M50.6734 24.0714C50.3524 24.0714 50.0745 23.9579 49.8397 23.7309C49.6126 23.496 49.4991 23.2181 49.4991 22.8971L49.4639 8.32409C49.456 8.25363 49.4521 8.18317 49.4521 8.11271C49.4521 8.00311 49.4756 7.89742 49.5226 7.79565C49.5774 7.69388 49.64 7.58819 49.7105 7.47859C49.8984 7.17327 50.1685 7.02062 50.5207 7.02062C51.0844 7.02062 51.4719 7.23982 51.6833 7.67822L57.9658 17.9298L63.7786 7.66648C64.0134 7.27505 64.3305 7.07933 64.7297 7.07933C65.0664 7.07933 65.3599 7.18893 65.6105 7.40813C65.861 7.62734 65.9862 7.90917 65.9862 8.25363V22.9441C65.9862 23.2651 65.8688 23.543 65.6339 23.7778C65.4069 24.0049 65.1329 24.1184 64.8119 24.1184C64.491 24.1184 64.213 24.0049 63.9782 23.7778C63.7512 23.543 63.6376 23.2651 63.6376 22.9441V12.4459L59.0227 20.8304C58.9365 20.9713 58.8035 21.1083 58.6234 21.2414C58.4433 21.3666 58.2476 21.4292 58.0362 21.4292C57.5822 21.4292 57.2338 21.2414 56.9911 20.8656L51.8125 12.3989L51.8477 22.8854V22.8971C51.8477 23.2181 51.7303 23.496 51.4954 23.7309C51.2684 23.9579 50.9944 24.0714 50.6734 24.0714ZM69.2508 10.0033C68.8907 10.0033 68.5971 9.89373 68.3701 9.67453C68.143 9.4475 68.0256 9.16958 68.0178 8.84078L67.9943 7.94831C67.9943 7.65082 68.1274 7.41205 68.3935 7.23199C68.6597 7.0441 68.9142 6.95016 69.1568 6.95016C69.4856 6.95016 69.7596 7.06367 69.9788 7.2907C70.2059 7.51774 70.3233 7.79174 70.3311 8.11271L70.3429 8.81729C70.3429 9.12261 70.2411 9.39661 70.0376 9.6393C69.834 9.88199 69.5718 10.0033 69.2508 10.0033ZM67.9825 12.2228C67.9825 11.9253 68.1078 11.6826 68.3583 11.4947C68.6088 11.3068 68.8515 11.2129 69.0864 11.2129C69.4308 11.2129 69.7244 11.3146 69.9671 11.5182C70.2098 11.7217 70.3311 11.9918 70.3311 12.3284V12.3402L70.3546 23.2142C70.3546 23.5273 70.2372 23.7935 70.0023 24.0127C69.7753 24.2319 69.5013 24.3415 69.1803 24.3415C68.8515 24.3415 68.5736 24.2319 68.3466 24.0127C68.1195 23.7857 68.006 23.5156 68.006 23.2024L67.9825 12.2228ZM82.3912 11.2129C82.673 11.2129 82.9274 11.3264 83.1545 11.5534C83.3893 11.7804 83.5068 12.031 83.5068 12.305C83.5068 12.5476 83.4676 12.7473 83.3893 12.9038L78.4338 23.6252C78.2224 24.0714 77.8623 24.2945 77.3534 24.2945C76.8289 24.2945 76.4766 24.0558 76.2966 23.5782L71.8577 12.8569C71.7951 12.7238 71.7638 12.5398 71.7638 12.305C71.7638 12.0544 71.8695 11.8117 72.0808 11.5769C72.3 11.3342 72.5427 11.2129 72.8089 11.2129C73.4195 11.2129 73.8266 11.4555 74.0302 11.9409L77.4474 20.2549L81.2638 11.8939C81.4752 11.4399 81.851 11.2129 82.3912 11.2129ZM90.529 11.1541C91.1084 11.1541 91.672 11.2716 92.22 11.5064C92.7759 11.7335 93.2691 12.0231 93.6997 12.3754C94.1381 12.7199 94.4629 13.0761 94.6743 13.444L94.8035 12.3167C94.8035 11.9957 94.8974 11.7217 95.0853 11.4947C95.2732 11.2598 95.5276 11.1424 95.8486 11.1424C96.1696 11.1424 96.4436 11.2598 96.6706 11.4947C96.9055 11.7217 97.0229 11.9957 97.0229 12.3167V12.3402L96.9994 23.2142C96.9994 23.5351 96.882 23.8131 96.6471 24.0479C96.4201 24.275 96.1461 24.3885 95.8251 24.3885C95.5042 24.3885 95.2497 24.275 95.0618 24.0479C94.8739 23.8131 94.78 23.5351 94.78 23.2142L94.6508 22.2747C94.2437 22.9715 93.6488 23.4921 92.8659 23.8366C92.083 24.1732 91.2963 24.3415 90.5056 24.3415C89.6209 24.3415 88.7911 24.1693 88.0161 23.8248C87.241 23.4725 86.5599 22.9911 85.9728 22.3804C85.3856 21.7698 84.9237 21.0691 84.5871 20.2784C84.2583 19.4877 84.0939 18.654 84.0939 17.7772C84.0939 16.9082 84.2544 16.0784 84.5754 15.2877C84.9042 14.4891 85.3582 13.7807 85.9375 13.1622C86.5247 12.5359 87.2058 12.0466 87.9808 11.6943C88.7637 11.3342 89.6131 11.1541 90.529 11.1541ZM94.5804 17.7537C94.5804 16.9865 94.4003 16.2819 94.0402 15.64C93.6879 14.998 93.2064 14.4813 92.5958 14.0899C91.9852 13.6985 91.2884 13.5027 90.5056 13.5027C89.7384 13.5027 89.0455 13.6985 88.4271 14.0899C87.8086 14.4813 87.3193 15.0019 86.9592 15.6517C86.5991 16.2936 86.419 16.9904 86.419 17.7419C86.419 18.5013 86.603 19.2059 86.9709 19.8557C87.3389 20.4976 87.8321 21.0143 88.4505 21.4058C89.0768 21.7972 89.7658 21.9929 90.5173 21.9929C91.2689 21.9929 91.9499 21.7972 92.5606 21.4058C93.179 21.0143 93.6683 20.4976 94.0285 19.8557C94.3964 19.2059 94.5804 18.5052 94.5804 17.7537ZM100.276 24.2476C99.9547 24.2476 99.6768 24.138 99.442 23.9188C99.2149 23.6917 99.1014 23.4216 99.1014 23.1085V23.0967L99.0779 8.3828C99.0779 8.17143 99.1758 7.93265 99.3715 7.66648C99.5751 7.39248 99.8647 7.25156 100.24 7.24373L103.94 7.22025C105.083 7.22025 106.12 7.40813 107.051 7.78391C107.991 8.15186 108.735 8.7116 109.283 9.46315C109.838 10.2147 110.116 11.1698 110.116 12.3284C110.116 13.6515 109.827 14.7162 109.247 15.5225C108.668 16.3289 107.873 16.9199 106.864 17.2957C105.861 17.6715 104.718 17.879 103.435 17.9181L101.438 17.9651L101.45 23.1202V23.132C101.45 23.4451 101.333 23.7113 101.098 23.9305C100.871 24.1419 100.597 24.2476 100.276 24.2476ZM107.768 12.3402C107.768 11.3616 107.419 10.657 106.723 10.2264C106.034 9.79587 105.079 9.58058 103.857 9.58058H101.427L101.438 15.593L103.399 15.546C104.777 15.5147 105.85 15.2798 106.617 14.8414C107.384 14.403 107.768 13.5693 107.768 12.3402ZM119.569 7.03236C120.767 7.03236 121.867 7.26722 122.869 7.73694C123.879 8.19883 124.756 8.83686 125.5 9.65104C126.243 10.4574 126.819 11.389 127.226 12.4459C127.633 13.4949 127.836 14.6105 127.836 15.7926C127.836 16.9747 127.633 18.0864 127.226 19.1276C126.827 20.161 126.259 21.073 125.523 21.8637C124.787 22.6544 123.914 23.2729 122.904 23.7191C121.902 24.1654 120.795 24.3885 119.581 24.3885C118.344 24.3885 117.221 24.1654 116.211 23.7191C115.201 23.2651 114.332 22.6427 113.604 21.852C112.884 21.0535 112.328 20.1336 111.936 19.0924C111.545 18.0434 111.349 16.9199 111.349 15.7222C111.349 14.5557 111.553 13.4519 111.96 12.4106C112.375 11.3694 112.95 10.4456 113.686 9.6393C114.43 8.82512 115.299 8.18708 116.293 7.72519C117.295 7.2633 118.387 7.03236 119.569 7.03236ZM119.616 9.41618C118.458 9.41618 117.432 9.71759 116.54 10.3204C115.655 10.9232 114.958 11.7217 114.449 12.716C113.948 13.7024 113.698 14.7827 113.698 15.957C113.698 16.7555 113.851 17.5188 114.156 18.2469C114.461 18.975 114.884 19.6247 115.424 20.1962C115.964 20.7599 116.587 21.2061 117.291 21.5349C118.004 21.8559 118.763 22.0164 119.569 22.0164C120.376 22.0164 121.135 21.8481 121.848 21.5114C122.568 21.1748 123.202 20.7207 123.75 20.1493C124.306 19.5778 124.74 18.9358 125.053 18.2234C125.367 17.5032 125.523 16.7673 125.523 16.0157C125.523 14.8023 125.257 13.6985 124.725 12.7042C124.2 11.7021 123.492 10.9036 122.599 10.3086C121.707 9.71367 120.712 9.41618 119.616 9.41618ZM136.456 7.00887C137.356 7.00887 138.206 7.16153 139.004 7.46685C139.81 7.77217 140.515 8.19491 141.118 8.73509C141.721 9.27527 142.179 9.90156 142.492 10.614C142.562 10.7705 142.597 10.931 142.597 11.0954C142.597 11.4164 142.48 11.6943 142.245 11.9292C142.018 12.1562 141.744 12.2697 141.423 12.2697C141.212 12.2697 141 12.2032 140.789 12.0701C140.578 11.9292 140.429 11.7609 140.343 11.5651C140.045 10.8919 139.548 10.3556 138.851 9.95636C138.162 9.5571 137.364 9.35747 136.456 9.35747C136.01 9.35747 135.536 9.41227 135.035 9.52187C134.542 9.63147 134.076 9.79979 133.637 10.0268C133.199 10.246 132.843 10.5239 132.569 10.8606C132.295 11.1972 132.158 11.5886 132.158 12.0349C132.158 12.395 132.275 12.7081 132.51 12.9743C132.745 13.2326 133.007 13.4362 133.297 13.5849C133.978 13.9216 134.73 14.1564 135.552 14.2895C136.381 14.4226 137.219 14.5518 138.065 14.677C138.91 14.8023 139.697 15.0215 140.425 15.3346C140.887 15.5304 141.329 15.8004 141.752 16.1449C142.175 16.4894 142.519 16.9082 142.785 17.4014C143.051 17.8946 143.185 18.4739 143.185 19.1394C143.185 20.0005 142.977 20.756 142.562 21.4058C142.147 22.0555 141.603 22.5957 140.93 23.0263C140.257 23.4569 139.525 23.7818 138.734 24.001C137.951 24.2123 137.184 24.318 136.432 24.318C135.415 24.318 134.46 24.1575 133.567 23.8366C132.675 23.5077 131.896 23.0459 131.23 22.4509C130.565 21.8481 130.056 21.1435 129.704 20.3371C129.633 20.1806 129.598 20.024 129.598 19.8674C129.598 19.5465 129.711 19.2724 129.938 19.0454C130.173 18.8106 130.451 18.6931 130.772 18.6931C130.991 18.6931 131.207 18.7636 131.418 18.9045C131.629 19.0376 131.774 19.2059 131.853 19.4095C132.197 20.2001 132.78 20.8264 133.602 21.2883C134.424 21.7424 135.368 21.9694 136.432 21.9694C137.098 21.9694 137.767 21.8716 138.44 21.6758C139.114 21.4723 139.677 21.1631 140.131 20.7482C140.593 20.3254 140.824 19.7891 140.824 19.1394C140.824 18.7244 140.683 18.3839 140.401 18.1177C140.127 17.8437 139.826 17.6363 139.497 17.4953C138.754 17.1744 137.959 16.9552 137.113 16.8377C136.268 16.7125 135.426 16.5833 134.589 16.4502C133.751 16.3093 132.968 16.0549 132.24 15.6869C131.622 15.3738 131.058 14.9197 130.549 14.3247C130.048 13.7219 129.798 12.9586 129.798 12.0349C129.798 11.2207 129.993 10.5044 130.385 9.8859C130.784 9.25961 131.308 8.73509 131.958 8.31234C132.616 7.88177 133.336 7.55688 134.119 7.33768C134.902 7.11847 135.681 7.00887 136.456 7.00887Z" fill="white" style="fill:white;fill-opacity:1;"/>
<path d="M49.8397 23.7309L49.6164 23.9467L49.624 23.954L49.8397 23.7309ZM49.4991 22.8971H49.8094L49.8094 22.8964L49.4991 22.8971ZM49.4639 8.32409L49.7742 8.32334L49.7742 8.30652L49.7723 8.28982L49.4639 8.32409ZM49.5226 7.79565L49.2494 7.64853L49.2448 7.65694L49.2408 7.66561L49.5226 7.79565ZM49.7105 7.47859L49.9716 7.64643L49.9748 7.64123L49.7105 7.47859ZM51.6833 7.67822L51.4038 7.81299L51.4106 7.82706L51.4187 7.84037L51.6833 7.67822ZM57.9658 17.9298L57.7012 18.092L57.9763 18.5409L58.2358 18.0828L57.9658 17.9298ZM63.7786 7.66648L63.5124 7.50677L63.5085 7.51355L63.7786 7.66648ZM65.6339 23.7778L65.4145 23.5584L65.6339 23.7778ZM63.9782 23.7778L63.7549 23.9936L63.7625 24.001L63.9782 23.7778ZM63.6376 12.4459H63.948L63.3658 12.2962L63.6376 12.4459ZM59.0227 20.8304L59.2877 20.9923L59.2945 20.98L59.0227 20.8304ZM58.6234 21.2414L58.8007 21.4962L58.8078 21.4909L58.6234 21.2414ZM56.9911 20.8656L56.7263 21.0275L56.7304 21.0339L56.9911 20.8656ZM51.8125 12.3989L52.0772 12.237L51.4984 11.2907L51.5022 12.3999L51.8125 12.3989ZM51.8477 22.8854H52.158L52.158 22.8843L51.8477 22.8854ZM50.6734 23.7611C50.4345 23.7611 50.2335 23.68 50.0553 23.5077L49.624 23.954C49.9156 24.2358 50.2704 24.3817 50.6734 24.3817V23.7611ZM50.0628 23.5152C49.8906 23.337 49.8094 23.136 49.8094 22.8971H49.1888C49.1888 23.3001 49.3347 23.655 49.6165 23.9465L50.0628 23.5152ZM49.8094 22.8964L49.7742 8.32334L49.1536 8.32484L49.1888 22.8979L49.8094 22.8964ZM49.7723 8.28982C49.7657 8.23067 49.7625 8.17165 49.7625 8.11271H49.1418C49.1418 8.19469 49.1464 8.27659 49.1555 8.35835L49.7723 8.28982ZM49.7625 8.11271C49.7625 8.04905 49.7758 7.98765 49.8043 7.92569L49.2408 7.66561C49.1755 7.8072 49.1418 7.95717 49.1418 8.11271H49.7625ZM49.7958 7.94277C49.8464 7.84887 49.9048 7.7501 49.9715 7.6464L49.4494 7.31079C49.3752 7.42629 49.3084 7.53889 49.2494 7.64853L49.7958 7.94277ZM49.9748 7.64123C50.1074 7.42571 50.2785 7.33093 50.5207 7.33093V6.7103C50.0584 6.7103 49.6893 6.92084 49.4462 7.31596L49.9748 7.64123ZM50.5207 7.33093C50.763 7.33093 50.945 7.378 51.0813 7.45512C51.2149 7.53067 51.3229 7.6452 51.4038 7.81299L51.9628 7.54345C51.8323 7.27284 51.6409 7.05857 51.3869 6.91492C51.1357 6.77283 50.8421 6.7103 50.5207 6.7103V7.33093ZM51.4187 7.84037L57.7012 18.092L58.2304 17.7677L51.9479 7.51608L51.4187 7.84037ZM58.2358 18.0828L64.0486 7.81941L63.5085 7.51355L57.6958 17.7769L58.2358 18.0828ZM64.0447 7.82614C64.233 7.51223 64.4569 7.38965 64.7297 7.38965V6.76901C64.2041 6.76901 63.7938 7.03786 63.5125 7.50682L64.0447 7.82614ZM64.7297 7.38965C64.9921 7.38965 65.2129 7.47258 65.4061 7.64167L65.8148 7.1746C65.507 6.90529 65.1406 6.76901 64.7297 6.76901V7.38965ZM65.4061 7.64167C65.5867 7.79965 65.6759 7.9951 65.6759 8.25363H66.2966C66.2966 7.82324 66.1353 7.45503 65.8148 7.1746L65.4061 7.64167ZM65.6759 8.25363V22.9441H66.2966V8.25363H65.6759ZM65.6759 22.9441C65.6759 23.1796 65.5934 23.3795 65.4145 23.5584L65.8534 23.9973C66.1442 23.7065 66.2966 23.3505 66.2966 22.9441H65.6759ZM65.4145 23.5584C65.2457 23.7273 65.0506 23.8081 64.8119 23.8081V24.4287C65.2152 24.4287 65.5682 24.2825 65.8534 23.9973L65.4145 23.5584ZM64.8119 23.8081C64.573 23.8081 64.372 23.7269 64.1939 23.5547L63.7625 24.001C64.0541 24.2828 64.4089 24.4287 64.8119 24.4287V23.8081ZM64.2013 23.5622C64.0291 23.384 63.948 23.183 63.948 22.9441H63.3273C63.3273 23.3471 63.4732 23.7019 63.7551 23.9935L64.2013 23.5622ZM63.948 22.9441V12.4459H63.3273V22.9441H63.948ZM63.3658 12.2962L58.7508 20.6807L59.2945 20.98L63.9095 12.5955L63.3658 12.2962ZM58.7579 20.6685C58.6986 20.7655 58.5976 20.8746 58.4389 20.9918L58.8078 21.4909C59.0093 21.342 59.1745 21.177 59.2874 20.9922L58.7579 20.6685ZM58.4462 20.9866C58.3161 21.0771 58.1818 21.1189 58.0362 21.1189V21.7396C58.3135 21.7396 58.5706 21.6561 58.8006 21.4961L58.4462 20.9866ZM58.0362 21.1189C57.6856 21.1189 57.4363 20.9829 57.2518 20.6972L56.7304 21.0339C57.0313 21.4998 57.4788 21.7396 58.0362 21.7396V21.1189ZM57.2558 20.7037L52.0772 12.237L51.5477 12.5608L56.7264 21.0275L57.2558 20.7037ZM51.5022 12.3999L51.5374 22.8864L52.158 22.8843L52.1228 12.3979L51.5022 12.3999ZM51.5374 22.8854V22.8971H52.158V22.8854H51.5374ZM51.5374 22.8971C51.5374 23.1326 51.4549 23.3325 51.276 23.5114L51.7148 23.9503C52.0056 23.6595 52.158 23.3035 52.158 22.8971H51.5374ZM51.276 23.5114C51.1071 23.6803 50.912 23.7611 50.6734 23.7611V24.3817C51.0767 24.3817 51.4296 24.2355 51.7148 23.9503L51.276 23.5114ZM68.3701 9.67453L68.1506 9.89399L68.1545 9.89777L68.3701 9.67453ZM68.0178 8.84078L68.328 8.83339L68.328 8.83261L68.0178 8.84078ZM67.9943 7.94831H67.6839L67.6841 7.95647L67.9943 7.94831ZM68.3935 7.23199L68.5675 7.48907L68.5725 7.48551L68.3935 7.23199ZM69.9788 7.2907L69.7556 7.50628L69.7594 7.51013L69.9788 7.2907ZM70.3311 8.11271L70.6414 8.10754L70.6414 8.10515L70.3311 8.11271ZM70.3429 8.81729H70.6532L70.6532 8.81212L70.3429 8.81729ZM70.0376 9.6393L70.2753 9.83871L70.0376 9.6393ZM67.9825 12.2228H67.6722L67.6722 12.2234L67.9825 12.2228ZM68.3583 11.4947L68.1721 11.2464L68.3583 11.4947ZM69.9671 11.5182L69.7677 11.7559L69.9671 11.5182ZM70.3311 12.3402H70.0208L70.0208 12.3409L70.3311 12.3402ZM70.3546 23.2142H70.6649L70.6649 23.2135L70.3546 23.2142ZM70.0023 24.0127L69.7906 23.7858L69.7868 23.7895L70.0023 24.0127ZM68.3466 24.0127L68.1271 24.2322L68.131 24.2359L68.3466 24.0127ZM68.006 23.2024H68.3163L68.3163 23.2018L68.006 23.2024ZM69.2508 9.69301C68.9588 9.69301 68.7465 9.60665 68.5856 9.45128L68.1545 9.89777C68.4477 10.1808 68.8225 10.3136 69.2508 10.3136V9.69301ZM68.5895 9.4551C68.4204 9.28597 68.334 9.08463 68.328 8.83339L67.7075 8.84816C67.7172 9.25453 67.8657 9.60903 68.1506 9.89396L68.5895 9.4551ZM68.328 8.83261L68.3045 7.94015L67.6841 7.95647L67.7076 8.84894L68.328 8.83261ZM68.3046 7.94831C68.3046 7.76324 68.3785 7.61684 68.5674 7.48902L68.2197 6.97496C67.8763 7.20726 67.684 7.53841 67.684 7.94831H68.3046ZM68.5725 7.48551C68.804 7.32213 68.9969 7.26048 69.1568 7.26048V6.63984C68.8314 6.63984 68.5155 6.76608 68.2146 6.97847L68.5725 7.48551ZM69.1568 7.26048C69.4054 7.26048 69.5976 7.34257 69.7556 7.50625L70.2021 7.07516C69.9217 6.78478 69.5659 6.63984 69.1568 6.63984V7.26048ZM69.7594 7.51013C69.9301 7.68082 70.015 7.87896 70.0209 8.12028L70.6414 8.10515C70.6316 7.70451 70.4816 7.35465 70.1983 7.07128L69.7594 7.51013ZM70.0209 8.11788L70.0326 8.82246L70.6532 8.81212L70.6414 8.10754L70.0209 8.11788ZM70.0326 8.81729C70.0326 9.04676 69.9584 9.2508 69.7998 9.43988L70.2753 9.83871C70.5238 9.54242 70.6532 9.19846 70.6532 8.81729H70.0326ZM69.7998 9.43988C69.6561 9.61119 69.4814 9.69301 69.2508 9.69301V10.3136C69.6621 10.3136 70.0119 10.1528 70.2753 9.83871L69.7998 9.43988ZM68.2929 12.2228C68.2929 12.0288 68.3673 11.8758 68.5445 11.7429L68.1721 11.2464C67.8483 11.4893 67.6722 11.8217 67.6722 12.2228H68.2929ZM68.5445 11.7429C68.7591 11.582 68.9379 11.5232 69.0864 11.5232V10.9025C68.7651 10.9025 68.4586 11.0316 68.1721 11.2464L68.5445 11.7429ZM69.0864 11.5232C69.3648 11.5232 69.5859 11.6035 69.7677 11.7559L70.1665 11.2804C69.8629 11.0258 69.4969 10.9025 69.0864 10.9025V11.5232ZM69.7677 11.7559C69.9352 11.8964 70.0208 12.077 70.0208 12.3284H70.6415C70.6415 11.9066 70.4844 11.547 70.1665 11.2804L69.7677 11.7559ZM70.0208 12.3284V12.3402H70.6415V12.3284H70.0208ZM70.0208 12.3409L70.0443 23.2148L70.6649 23.2135L70.6415 12.3395L70.0208 12.3409ZM70.0443 23.2142C70.0443 23.4388 69.9644 23.6236 69.7906 23.7858L70.2141 24.2396C70.51 23.9634 70.6649 23.6158 70.6649 23.2142H70.0443ZM69.7868 23.7895C69.6187 23.9517 69.4224 24.0312 69.1803 24.0312V24.6518C69.5802 24.6518 69.9319 24.5121 70.2179 24.2359L69.7868 23.7895ZM69.1803 24.0312C68.9282 24.0312 68.7287 23.9503 68.5621 23.7895L68.131 24.2359C68.4185 24.5135 68.7748 24.6518 69.1803 24.6518V24.0312ZM68.566 23.7933C68.3955 23.6228 68.3163 23.431 68.3163 23.2024H67.6957C67.6957 23.6002 67.8436 23.9485 68.1271 24.2321L68.566 23.7933ZM68.3163 23.2018L68.2929 12.2221L67.6722 12.2234L67.6957 23.2031L68.3163 23.2018ZM83.1545 11.5534L82.935 11.7729L82.9388 11.7765L83.1545 11.5534ZM83.3893 12.9038L83.1116 12.765L83.1076 12.7736L83.3893 12.9038ZM78.4338 23.6252L78.7142 23.758L78.7155 23.7554L78.4338 23.6252ZM76.2966 23.5782L76.5871 23.4687L76.5833 23.4595L76.2966 23.5782ZM71.8577 12.8569L72.1444 12.7382L72.1416 12.7314L72.1385 12.7247L71.8577 12.8569ZM72.0808 11.5769L71.8506 11.3689L71.8502 11.3693L72.0808 11.5769ZM74.0302 11.9409L74.3172 11.8229L74.3163 11.8209L74.0302 11.9409ZM77.4474 20.2549L77.1604 20.3729L77.4325 21.0349L77.7297 20.3838L77.4474 20.2549ZM81.2638 11.8939L80.9825 11.763L80.9815 11.7651L81.2638 11.8939ZM82.3912 11.5232C82.579 11.5232 82.7574 11.5952 82.935 11.7728L83.3739 11.334C83.0975 11.0576 82.767 10.9025 82.3912 10.9025V11.5232ZM82.9388 11.7765C83.1257 11.9572 83.1964 12.131 83.1964 12.305H83.8171C83.8171 11.9309 83.653 11.6037 83.3701 11.3303L82.9388 11.7765ZM83.1964 12.305C83.1964 12.517 83.1618 12.6649 83.1118 12.7651L83.6669 13.0426C83.7734 12.8296 83.8171 12.5783 83.8171 12.305H83.1964ZM83.1076 12.7736L78.1521 23.495L78.7155 23.7554L83.671 13.034L83.1076 12.7736ZM78.1533 23.4923C78.0689 23.6706 77.963 23.7882 77.8417 23.8634C77.7198 23.9389 77.5618 23.9842 77.3534 23.9842V24.6048C77.6539 24.6048 77.9304 24.5386 78.1686 24.391C78.4074 24.243 78.5873 24.026 78.7142 23.758L78.1533 23.4923ZM77.3534 23.9842C77.1387 23.9842 76.9838 23.9358 76.8699 23.8586C76.7567 23.7818 76.659 23.6597 76.5869 23.4687L76.0062 23.6877C76.1142 23.9742 76.2827 24.2103 76.5217 24.3723C76.7601 24.5339 77.0436 24.6048 77.3534 24.6048V23.9842ZM76.5833 23.4595L72.1444 12.7382L71.571 12.9756L76.0099 23.6969L76.5833 23.4595ZM72.1385 12.7247C72.1035 12.6504 72.0741 12.5184 72.0741 12.305H71.4535C71.4535 12.5612 71.4867 12.7972 71.5769 12.989L72.1385 12.7247ZM72.0741 12.305C72.0741 12.1496 72.1375 11.9778 72.3115 11.7845L71.8502 11.3693C71.6014 11.6457 71.4535 11.9593 71.4535 12.305H72.0741ZM72.3111 11.7849C72.486 11.5913 72.6501 11.5232 72.8089 11.5232V10.9025C72.4354 10.9025 72.1141 11.0771 71.8506 11.3689L72.3111 11.7849ZM72.8089 11.5232C73.0741 11.5232 73.2698 11.5759 73.4133 11.6614C73.5536 11.745 73.6649 11.8723 73.744 12.0609L74.3163 11.8209C74.1919 11.5241 73.9979 11.2874 73.7311 11.1283C73.4675 10.9712 73.1543 10.9025 72.8089 10.9025V11.5232ZM73.7432 12.0589L77.1604 20.3729L77.7344 20.137L74.3172 11.823L73.7432 12.0589ZM77.7297 20.3838L81.5461 12.0228L80.9815 11.7651L77.1651 20.1261L77.7297 20.3838ZM81.5452 12.0249C81.6286 11.8457 81.7367 11.726 81.8647 11.6487C81.9941 11.5705 82.1646 11.5232 82.3912 11.5232V10.9025C82.0775 10.9025 81.7901 10.9687 81.5437 11.1175C81.2959 11.2673 81.1104 11.4882 80.9825 11.763L81.5452 12.0249ZM92.22 11.5064L92.0978 11.7917L92.1027 11.7937L92.22 11.5064ZM93.6996 12.3754L93.5031 12.6156L93.5079 12.6194L93.6996 12.3754ZM94.6743 13.444L94.4052 13.5986L94.8752 14.4167L94.9826 13.4793L94.6743 13.444ZM94.8035 12.3167L95.1118 12.352L95.1138 12.3344V12.3167H94.8035ZM95.0853 11.4947L95.3244 11.6926L95.3276 11.6885L95.0853 11.4947ZM96.6706 11.4947L96.4474 11.7105L96.4549 11.7178L96.6706 11.4947ZM97.0229 12.3402L97.3332 12.3409V12.3402H97.0229ZM96.9994 23.2142L96.6891 23.2135V23.2142H96.9994ZM96.6471 24.0479L96.4277 23.8285L96.6471 24.0479ZM95.0618 24.0479L94.8195 24.2418L94.8228 24.2458L95.0618 24.0479ZM94.78 23.2142H95.0903V23.1929L95.0874 23.1719L94.78 23.2142ZM94.6508 22.2747L94.9583 22.2325L94.8359 21.3428L94.3829 22.1182L94.6508 22.2747ZM92.8659 23.8366L92.9885 24.1216L92.9909 24.1206L92.8659 23.8366ZM88.0161 23.8248L87.8876 24.1073L87.89 24.1084L88.0161 23.8248ZM84.5871 20.2784L84.3006 20.3976L84.3016 20.4L84.5871 20.2784ZM84.5754 15.2877L84.2884 15.1695L84.2878 15.1709L84.5754 15.2877ZM85.9375 13.1622L85.7112 12.95L85.7111 12.95L85.9375 13.1622ZM87.9808 11.6943L88.1092 11.9768L88.1105 11.9762L87.9808 11.6943ZM94.0402 15.64L93.7681 15.7893L93.7696 15.7918L94.0402 15.64ZM86.9592 15.6517L87.2298 15.8035L87.2306 15.8021L86.9592 15.6517ZM86.9709 19.8557L86.7009 20.0086L86.7017 20.01L86.9709 19.8557ZM88.4505 21.4058L88.2846 21.668L88.2861 21.6689L88.4505 21.4058ZM92.5606 21.4058L92.3946 21.1435L92.3931 21.1445L92.5606 21.4058ZM94.0285 19.8557L93.7584 19.7028L93.7578 19.7039L94.0285 19.8557ZM90.529 11.4645C91.0651 11.4645 91.5873 11.5729 92.0978 11.7917L92.3423 11.2212C91.7568 10.9703 91.1516 10.8438 90.529 10.8438V11.4645ZM92.1027 11.7937C92.6322 12.01 93.0983 12.2843 93.5031 12.6156L93.8962 12.1352C93.4399 11.7619 92.9195 11.4569 92.3374 11.2192L92.1027 11.7937ZM93.5079 12.6194C93.9244 12.9466 94.2188 13.2741 94.4052 13.5986L94.9434 13.2894C94.7071 12.878 94.3517 12.4931 93.8914 12.1314L93.5079 12.6194ZM94.9826 13.4793L95.1118 12.352L94.4952 12.2814L94.366 13.4087L94.9826 13.4793ZM95.1138 12.3167C95.1138 12.061 95.1868 11.8588 95.3244 11.6925L94.8463 11.2968C94.6081 11.5846 94.4932 11.9304 94.4932 12.3167H95.1138ZM95.3276 11.6885C95.4522 11.5328 95.6146 11.4527 95.8486 11.4527V10.8321C95.4407 10.8321 95.0942 10.9869 94.843 11.3008L95.3276 11.6885ZM95.8486 11.4527C96.0838 11.4527 96.2778 11.5348 96.4475 11.7104L96.8937 11.279C96.6094 10.9849 96.2554 10.8321 95.8486 10.8321V11.4527ZM96.4549 11.7178C96.6305 11.8875 96.7126 12.0815 96.7126 12.3167H97.3332C97.3332 11.9099 97.1804 11.5559 96.8863 11.2716L96.4549 11.7178ZM96.7126 12.3167V12.3402H97.3332V12.3167H96.7126ZM96.7126 12.3395L96.6891 23.2135L97.3097 23.2148L97.3332 12.3409L96.7126 12.3395ZM96.6891 23.2142C96.6891 23.4497 96.6066 23.6496 96.4277 23.8285L96.8666 24.2674C97.1574 23.9766 97.3097 23.6206 97.3097 23.2142H96.6891ZM96.4277 23.8285C96.2589 23.9974 96.0638 24.0782 95.8251 24.0782V24.6988C96.2284 24.6988 96.5814 24.5526 96.8666 24.2674L96.4277 23.8285ZM95.8251 24.0782C95.5872 24.0782 95.4241 23.999 95.3009 23.8501L94.8228 24.2458C95.0753 24.551 95.4211 24.6988 95.8251 24.6988V24.0782ZM95.3042 23.8541C95.1634 23.6781 95.0903 23.4698 95.0903 23.2142H94.4697C94.4697 23.6005 94.5845 23.9481 94.8195 24.2418L95.3042 23.8541ZM95.0874 23.1719L94.9583 22.2325L94.3434 22.317L94.4726 23.2564L95.0874 23.1719ZM94.3829 22.1182C94.0109 22.7549 93.4677 23.2327 92.7409 23.5525L92.9909 24.1206C93.8298 23.7514 94.4766 23.188 94.9188 22.4313L94.3829 22.1182ZM92.7433 23.5515C91.9961 23.8728 91.2509 24.0312 90.5056 24.0312V24.6518C91.3416 24.6518 92.1699 24.4736 92.9885 24.1216L92.7433 23.5515ZM90.5056 24.0312C89.6624 24.0312 88.8757 23.8673 88.1421 23.5412L87.89 24.1084C88.7064 24.4712 89.5794 24.6518 90.5056 24.6518V24.0312ZM88.1445 23.5423C87.405 23.2062 86.7563 22.7475 86.1965 22.1653L85.7491 22.5955C86.3636 23.2346 87.077 23.7389 87.8876 24.1073L88.1445 23.5423ZM86.1965 22.1653C85.6358 21.5823 85.1947 20.9134 84.8726 20.1569L84.3016 20.4C84.6528 21.2248 85.1354 21.9573 85.7491 22.5955L86.1965 22.1653ZM84.8736 20.1593C84.5609 19.4073 84.4042 18.6141 84.4042 17.7772H83.7836C83.7836 18.6939 83.9557 19.5682 84.3006 20.3976L84.8736 20.1593ZM84.4042 17.7772C84.4042 16.9475 84.5572 16.1573 84.8629 15.4044L84.2878 15.1709C83.9515 15.9994 83.7836 16.8689 83.7836 17.7772H84.4042ZM84.8623 15.4058C85.1771 14.6414 85.6109 13.9649 86.164 13.3743L85.7111 12.95C85.1056 13.5965 84.6312 14.3369 84.2884 15.1695L84.8623 15.4058ZM86.1639 13.3744C86.7236 12.7775 87.3715 12.3122 88.1092 11.9768L87.8524 11.4118C87.0401 11.781 86.3258 12.2943 85.7112 12.95L86.1639 13.3744ZM88.1105 11.9762C88.8502 11.636 89.655 11.4645 90.529 11.4645V10.8438C89.5712 10.8438 88.6772 11.0324 87.8511 11.4124L88.1105 11.9762ZM94.8907 17.7537C94.8907 16.9357 94.6981 16.1785 94.3108 15.4881L93.7696 15.7918C94.1025 16.3854 94.2701 17.0373 94.2701 17.7537H94.8907ZM94.3122 15.4907C93.9352 14.8037 93.418 14.2483 92.7633 13.8286L92.4283 14.3511C92.9949 14.7143 93.4406 15.1923 93.7682 15.7893L94.3122 15.4907ZM92.7633 13.8286C92.0987 13.4026 91.3429 13.1924 90.5056 13.1924V13.8131C91.234 13.8131 91.8717 13.9943 92.4283 14.3511L92.7633 13.8286ZM90.5056 13.1924C89.6826 13.1924 88.9317 13.4033 88.2611 13.8277L88.593 14.3521C89.1594 13.9936 89.7941 13.8131 90.5056 13.8131V13.1924ZM88.2611 13.8277C87.598 14.2474 87.0727 14.8067 86.6878 15.5013L87.2306 15.8021C87.5659 15.1972 88.0192 14.7153 88.593 14.3521L88.2611 13.8277ZM86.6885 15.4999C86.3018 16.1892 86.1087 16.9384 86.1087 17.7419H86.7293C86.7293 17.0424 86.8963 16.3981 87.2298 15.8035L86.6885 15.4999ZM86.1087 17.7419C86.1087 18.554 86.3061 19.3114 86.7009 20.0086L87.241 19.7028C86.8999 19.1005 86.7293 18.4487 86.7293 17.7419H86.1087ZM86.7017 20.01C87.0945 20.6953 87.6229 21.2492 88.2846 21.668L88.6165 21.1435C88.0412 20.7794 87.5833 20.3 87.2402 19.7014L86.7017 20.01ZM88.2861 21.6689C88.9626 22.0917 89.7087 22.3032 90.5173 22.3032V21.6826C89.8228 21.6826 89.1911 21.5026 88.615 21.1426L88.2861 21.6689ZM90.5173 22.3032C91.326 22.3032 92.0656 22.0917 92.7281 21.667L92.3931 21.1445C91.8343 21.5027 91.2118 21.6826 90.5173 21.6826V22.3032ZM92.7265 21.668C93.3888 21.2488 93.9139 20.6941 94.2991 20.0075L93.7578 19.7039C93.4227 20.3012 92.9693 20.7798 92.3946 21.1435L92.7265 21.668ZM94.2985 20.0086C94.693 19.3119 94.8907 18.5585 94.8907 17.7537H94.2701C94.2701 18.452 94.0998 19.0999 93.7584 19.7028L94.2985 20.0086ZM99.442 23.9188L99.2224 24.1383L99.2302 24.1456L99.442 23.9188ZM99.1014 23.0967H99.4117V23.0962L99.1014 23.0967ZM99.0779 8.3828H98.7676V8.3833L99.0779 8.3828ZM99.3715 7.66648L99.1224 7.48143L99.1215 7.48265L99.3715 7.66648ZM100.24 7.24373L100.239 6.93339L100.234 6.93348L100.24 7.24373ZM103.94 7.22025V6.90992L103.938 6.90994L103.94 7.22025ZM107.051 7.78391L106.935 8.07171L106.938 8.07285L107.051 7.78391ZM109.283 9.46315L109.032 9.64599L109.033 9.64768L109.283 9.46315ZM106.864 17.2957L106.755 17.0049L106.755 17.0052L106.864 17.2957ZM103.435 17.9181L103.442 18.2283L103.444 18.2283L103.435 17.9181ZM101.438 17.9651L101.431 17.6548L101.127 17.662L101.128 17.9658L101.438 17.9651ZM101.45 23.1202H101.76L101.76 23.1195L101.45 23.1202ZM101.098 23.9305L101.309 24.1576L101.309 24.1574L101.098 23.9305ZM106.723 10.2264L106.558 10.4896L106.559 10.4904L106.723 10.2264ZM101.427 9.58058V9.27027H101.116L101.116 9.58119L101.427 9.58058ZM101.438 15.593L101.128 15.5936L101.129 15.9108L101.446 15.9032L101.438 15.593ZM103.399 15.546L103.392 15.2358L103.392 15.2358L103.399 15.546ZM100.276 23.9372C100.033 23.9372 99.8312 23.8575 99.6537 23.6919L99.2302 24.1456C99.5225 24.4184 99.8761 24.5579 100.276 24.5579V23.9372ZM99.6614 23.6993C99.4909 23.5288 99.4117 23.337 99.4117 23.1085H98.7911C98.7911 23.5062 98.939 23.8546 99.2225 24.1382L99.6614 23.6993ZM99.4117 23.1085V23.0967H98.7911V23.1085H99.4117ZM99.4117 23.0962L99.3882 8.38231L98.7676 8.3833L98.7911 23.0972L99.4117 23.0962ZM99.3882 8.3828C99.3882 8.26543 99.4444 8.09118 99.6215 7.85031L99.1215 7.48265C98.9072 7.77412 98.7676 8.07742 98.7676 8.3828H99.3882ZM99.6206 7.85153C99.7606 7.66302 99.9559 7.56005 100.247 7.55398L100.234 6.93348C99.7735 6.94308 99.3895 7.12193 99.1224 7.48143L99.6206 7.85153ZM100.242 7.55404L103.941 7.53056L103.938 6.90994L100.239 6.93342L100.242 7.55404ZM103.94 7.53056C105.048 7.53056 106.045 7.71271 106.935 8.0717L107.167 7.49612C106.194 7.10356 105.117 6.90993 103.94 6.90993V7.53056ZM106.938 8.07285C107.828 8.42115 108.522 8.94623 109.032 9.64598L109.533 9.28032C108.948 8.47698 108.154 7.88256 107.165 7.49496L106.938 8.07285ZM109.033 9.64768C109.541 10.3341 109.806 11.2201 109.806 12.3284H110.427C110.427 11.1195 110.136 10.0953 109.532 9.27863L109.033 9.64768ZM109.806 12.3284C109.806 13.6079 109.526 14.6029 108.995 15.3415L109.499 15.7036C110.127 14.8294 110.427 13.6951 110.427 12.3284H109.806ZM108.995 15.3415C108.455 16.0935 107.713 16.6487 106.755 17.0049L106.972 17.5866C108.034 17.1912 108.881 16.5643 109.499 15.7036L108.995 15.3415ZM106.755 17.0052C105.79 17.3669 104.682 17.5696 103.425 17.6079L103.444 18.2283C104.755 18.1883 105.933 17.9761 106.972 17.5863L106.755 17.0052ZM103.427 17.6079L101.431 17.6548L101.446 18.2753L103.442 18.2283L103.427 17.6079ZM101.128 17.9658L101.14 23.1209L101.76 23.1195L101.749 17.9644L101.128 17.9658ZM101.14 23.1202V23.132H101.76V23.1202H101.14ZM101.14 23.132C101.14 23.3566 101.06 23.5414 100.886 23.7036L101.309 24.1574C101.605 23.8812 101.76 23.5336 101.76 23.132H101.14ZM100.886 23.7034C100.719 23.8593 100.521 23.9372 100.276 23.9372V24.5579C100.672 24.5579 101.023 24.4245 101.309 24.1576L100.886 23.7034ZM108.078 12.3402C108.078 11.2785 107.693 10.4613 106.886 9.96247L106.559 10.4904C107.146 10.8527 107.457 11.4447 107.457 12.3402H108.078ZM106.887 9.9633C106.13 9.49009 105.109 9.27027 103.857 9.27027V9.8909C105.048 9.8909 105.937 10.1017 106.558 10.4896L106.887 9.9633ZM103.857 9.27027H101.427V9.8909H103.857V9.27027ZM101.116 9.58119L101.128 15.5936L101.749 15.5924L101.737 9.57998L101.116 9.58119ZM101.446 15.9032L103.407 15.8562L103.392 15.2358L101.431 15.2828L101.446 15.9032ZM103.406 15.8563C104.81 15.8244 105.941 15.5853 106.771 15.1109L106.463 14.572C105.759 14.9744 104.745 15.205 103.392 15.2358L103.406 15.8563ZM106.771 15.1109C107.671 14.5966 108.078 13.6318 108.078 12.3402H107.457C107.457 13.5068 107.097 14.2094 106.463 14.572L106.771 15.1109ZM122.869 7.73694L122.737 8.01793L122.74 8.01914L122.869 7.73694ZM125.5 9.65104L125.271 9.86033L125.272 9.86143L125.5 9.65104ZM127.226 12.4459L126.936 12.5574L126.937 12.5581L127.226 12.4459ZM127.226 19.1276L126.937 19.0146L126.936 19.0158L127.226 19.1276ZM122.904 23.7191L122.779 23.4353L122.778 23.4356L122.904 23.7191ZM116.211 23.7191L116.084 24.0022L116.086 24.003L116.211 23.7191ZM113.604 21.852L113.374 22.0598L113.376 22.0622L113.604 21.852ZM111.936 19.0924L111.646 19.2009L111.646 19.2016L111.936 19.0924ZM111.96 12.4106L111.672 12.2958L111.671 12.2976L111.96 12.4106ZM113.686 9.6393L113.457 9.43001L113.457 9.43011L113.686 9.6393ZM116.293 7.72519L116.163 7.44337L116.162 7.44376L116.293 7.72519ZM116.54 10.3204L116.366 10.0632L116.365 10.064L116.54 10.3204ZM114.449 12.716L114.173 12.5746L114.173 12.5754L114.449 12.716ZM115.424 20.1962L115.199 20.4094L115.2 20.4109L115.424 20.1962ZM117.291 21.5349L117.16 21.8162L117.164 21.8179L117.291 21.5349ZM121.848 21.5114L121.716 21.2303L121.715 21.2309L121.848 21.5114ZM123.75 20.1493L123.527 19.9329L123.526 19.9345L123.75 20.1493ZM125.053 18.2234L125.337 18.3483L125.338 18.3471L125.053 18.2234ZM124.725 12.7042L124.45 12.8481L124.451 12.8507L124.725 12.7042ZM119.569 7.34268C120.725 7.34268 121.78 7.56907 122.737 8.01792L123.001 7.45596C121.954 6.96536 120.809 6.72204 119.569 6.72204V7.34268ZM122.74 8.01914C123.712 8.46382 124.555 9.07715 125.271 9.86033L125.729 9.44175C124.957 8.59657 124.046 7.93384 122.998 7.45474L122.74 8.01914ZM125.272 9.86143C125.988 10.6381 126.543 11.5359 126.936 12.5574L127.515 12.3343C127.095 11.2421 126.499 10.2767 125.728 9.44065L125.272 9.86143ZM126.937 12.5581C127.329 13.5696 127.526 14.6469 127.526 15.7926H128.147C128.147 14.5741 127.937 13.4202 127.515 12.3336L126.937 12.5581ZM127.526 15.7926C127.526 16.9383 127.329 18.0115 126.937 19.0146L127.515 19.2406C127.937 18.1614 128.147 17.0112 128.147 15.7926H127.526ZM126.936 19.0158C126.551 20.0133 126.004 20.8913 125.296 21.6523L125.75 22.0751C126.514 21.2548 127.102 20.3087 127.515 19.2395L126.936 19.0158ZM125.296 21.6523C124.589 22.4115 123.751 23.0057 122.779 23.4353L123.03 24.003C124.077 23.5401 124.985 22.8973 125.75 22.0751L125.296 21.6523ZM122.778 23.4356C121.82 23.8624 120.756 24.0782 119.581 24.0782V24.6988C120.833 24.6988 121.985 24.4683 123.031 24.0026L122.778 23.4356ZM119.581 24.0782C118.382 24.0782 117.302 23.8621 116.336 23.4353L116.086 24.003C117.139 24.4686 118.306 24.6988 119.581 24.6988V24.0782ZM116.338 23.4361C115.365 22.9987 114.531 22.4007 113.832 21.6418L113.376 22.0622C114.133 22.8847 115.037 23.5314 116.084 24.0021L116.338 23.4361ZM113.834 21.6441C113.141 20.8755 112.605 19.9893 112.227 18.9832L111.646 19.2016C112.051 20.2779 112.626 21.2315 113.374 22.0598L113.834 21.6441ZM112.227 18.9839C111.85 17.9719 111.66 16.8855 111.66 15.7222H111.039C111.039 16.9544 111.24 18.1148 111.646 19.2009L112.227 18.9839ZM111.66 15.7222C111.66 14.5927 111.857 13.5273 112.249 12.5236L111.671 12.2976C111.249 13.3764 111.039 14.5187 111.039 15.7222H111.66ZM112.248 12.5255C112.65 11.5181 113.205 10.6265 113.915 9.84848L113.457 9.43011C112.695 10.2648 112.1 11.2208 111.672 12.2958L112.248 12.5255ZM113.915 9.84859C114.632 9.06454 115.467 8.45111 116.424 8.00662L116.162 7.44376C115.131 7.92306 114.228 8.58569 113.457 9.43001L113.915 9.84859ZM116.423 8.00701C117.382 7.56522 118.429 7.34268 119.569 7.34268V6.72204C118.346 6.72204 117.209 6.96139 116.163 7.44337L116.423 8.00701ZM119.616 9.10586C118.401 9.10586 117.314 9.42312 116.366 10.0632L116.713 10.5775C117.551 10.012 118.515 9.7265 119.616 9.7265V9.10586ZM116.365 10.064C115.436 10.6973 114.705 11.5362 114.173 12.5746L114.726 12.8573C115.212 11.9073 115.875 11.1491 116.714 10.5768L116.365 10.064ZM114.173 12.5754C113.648 13.608 113.388 14.737 113.388 15.957H114.008C114.008 14.8285 114.249 13.7967 114.726 12.8565L114.173 12.5754ZM113.388 15.957C113.388 16.7963 113.548 17.6004 113.87 18.3669L114.442 18.1269C114.153 17.4373 114.008 16.7148 114.008 15.957H113.388ZM113.87 18.3669C114.189 19.1293 114.633 19.8106 115.199 20.4094L115.65 19.9831C115.135 19.4388 114.733 18.8206 114.442 18.1269L113.87 18.3669ZM115.2 20.4109C115.767 21.0022 116.421 21.471 117.16 21.8161L117.423 21.2537C116.753 20.9412 116.162 20.5176 115.648 19.9815L115.2 20.4109ZM117.164 21.8179C117.918 22.1575 118.721 22.3267 119.569 22.3267V21.7061C118.806 21.7061 118.09 21.5543 117.419 21.252L117.164 21.8179ZM119.569 22.3267C120.421 22.3267 121.225 22.1487 121.98 21.792L121.715 21.2309C121.045 21.5475 120.331 21.7061 119.569 21.7061V22.3267ZM121.979 21.7926C122.734 21.4398 123.399 20.9633 123.974 20.364L123.526 19.9345C123.005 20.4782 122.402 20.9098 121.716 21.2303L121.979 21.7926ZM123.972 20.3656C124.553 19.7682 125.009 19.0955 125.337 18.3483L124.769 18.0985C124.471 18.7762 124.058 19.3873 123.527 19.9329L123.972 20.3656ZM125.338 18.3471C125.667 17.5897 125.833 16.8118 125.833 16.0157H125.213C125.213 16.7228 125.066 17.4167 124.769 18.0997L125.338 18.3471ZM125.833 16.0157C125.833 14.7552 125.556 13.6004 124.998 12.5577L124.451 12.8507C124.957 13.7965 125.213 14.8494 125.213 16.0157H125.833ZM125 12.5603C124.452 11.5147 123.709 10.6759 122.771 10.0504L122.427 10.5668C123.274 11.1314 123.948 11.8896 124.45 12.8481L125 12.5603ZM122.771 10.0504C121.827 9.42071 120.772 9.10586 119.616 9.10586V9.7265C120.653 9.7265 121.587 10.0066 122.427 10.5668L122.771 10.0504ZM139.004 7.46685L138.893 7.7567L138.894 7.75706L139.004 7.46685ZM142.492 10.614L142.208 10.7388L142.209 10.7413L142.492 10.614ZM142.245 11.9292L142.026 11.7098L142.245 11.9292ZM140.789 12.0701L140.617 12.3284L140.624 12.3327L140.789 12.0701ZM140.343 11.5651L140.627 11.4402L140.627 11.4397L140.343 11.5651ZM138.851 9.95636L138.696 10.2248L138.697 10.2256L138.851 9.95636ZM135.035 9.52187L134.969 9.21872L134.968 9.21894L135.035 9.52187ZM133.637 10.0268L133.776 10.3044L133.78 10.3024L133.637 10.0268ZM132.51 12.9743L132.277 13.1796L132.281 13.183L132.51 12.9743ZM133.297 13.5849L133.155 13.861L133.159 13.8631L133.297 13.5849ZM135.552 14.2895L135.502 14.5958L135.502 14.5959L135.552 14.2895ZM140.425 15.3346L140.302 15.6197L140.304 15.6204L140.425 15.3346ZM142.562 21.4058L142.301 21.2387L142.562 21.4058ZM140.93 23.0263L141.097 23.2877L140.93 23.0263ZM138.734 24.001L138.815 24.3006L138.817 24.3L138.734 24.001ZM133.567 23.8366L133.46 24.1277L133.462 24.1286L133.567 23.8366ZM131.23 22.4509L131.022 22.6809L131.023 22.6822L131.23 22.4509ZM129.704 20.3371L129.988 20.2129L129.987 20.2098L129.704 20.3371ZM131.418 18.9045L131.246 19.1628L131.253 19.1671L131.418 18.9045ZM131.853 19.4095L131.563 19.521L131.568 19.5334L131.853 19.4095ZM133.602 21.2883L133.45 21.5589L133.452 21.56L133.602 21.2883ZM138.44 21.6758L138.527 21.9738L138.53 21.9729L138.44 21.6758ZM140.131 20.7481L140.341 20.9772L140.341 20.9771L140.131 20.7481ZM140.401 18.1177L140.182 18.3372L140.188 18.3433L140.401 18.1177ZM139.497 17.4953L139.374 17.7803L139.375 17.7806L139.497 17.4953ZM137.113 16.8377L137.068 17.1447L137.071 17.1451L137.113 16.8377ZM134.589 16.4502L134.537 16.7563L134.54 16.7567L134.589 16.4502ZM132.24 15.6869L132.1 15.9638L132.1 15.9639L132.24 15.6869ZM130.549 14.3247L130.31 14.5231L130.313 14.5264L130.549 14.3247ZM130.385 9.8859L130.123 9.71909L130.122 9.71994L130.385 9.8859ZM131.958 8.31234L132.127 8.57246L132.128 8.57196L131.958 8.31234ZM136.456 7.31919C137.32 7.31919 138.132 7.46562 138.893 7.7567L139.115 7.177C138.279 6.85744 137.392 6.69856 136.456 6.69856V7.31919ZM138.894 7.75706C139.667 8.04972 140.338 8.45317 140.911 8.96619L141.325 8.50399C140.692 7.93666 139.954 7.49461 139.114 7.17664L138.894 7.75706ZM140.911 8.96619C141.482 9.47807 141.913 10.0686 142.208 10.7388L142.776 10.4891C142.444 9.73456 141.959 9.07247 141.325 8.50399L140.911 8.96619ZM142.209 10.7413C142.262 10.8597 142.287 10.9769 142.287 11.0954H142.908C142.908 10.8852 142.862 10.6814 142.775 10.4866L142.209 10.7413ZM142.287 11.0954C142.287 11.331 142.205 11.5308 142.026 11.7098L142.465 12.1486C142.755 11.8578 142.908 11.5018 142.908 11.0954H142.287ZM142.026 11.7098C141.857 11.8786 141.662 11.9594 141.423 11.9594V12.58C141.826 12.58 142.179 12.4338 142.465 12.1486L142.026 11.7098ZM141.423 11.9594C141.28 11.9594 141.125 11.9151 140.954 11.8075L140.624 12.3327C140.875 12.4912 141.143 12.58 141.423 12.58V11.9594ZM140.961 11.8119C140.79 11.6975 140.685 11.5722 140.627 11.4402L140.059 11.6901C140.173 11.9495 140.366 12.1608 140.617 12.3283L140.961 11.8119ZM140.627 11.4397C140.3 10.7004 139.754 10.1161 139.006 9.68711L138.697 10.2256C139.342 10.5951 139.791 11.0834 140.059 11.6906L140.627 11.4397ZM139.007 9.68787C138.264 9.25754 137.411 9.04715 136.456 9.04715V9.66778C137.317 9.66778 138.06 9.85665 138.696 10.2248L139.007 9.68787ZM136.456 9.04715C135.984 9.04715 135.488 9.10505 134.969 9.21872L135.101 9.82502C135.584 9.71949 136.035 9.66778 136.456 9.66778V9.04715ZM134.968 9.21894C134.449 9.33423 133.958 9.51159 133.495 9.75126L133.78 10.3024C134.194 10.088 134.635 9.92871 135.102 9.8248L134.968 9.21894ZM133.499 9.74926C133.026 9.9856 132.633 10.2897 132.328 10.6647L132.81 11.0565C133.052 10.7581 133.372 10.5064 133.776 10.3044L133.499 9.74926ZM132.328 10.6647C132.008 11.0583 131.848 11.5194 131.848 12.0349H132.468C132.468 11.6578 132.582 11.3361 132.81 11.0565L132.328 10.6647ZM131.848 12.0349C131.848 12.4694 131.992 12.8558 132.277 13.1796L132.743 12.769C132.559 12.5604 132.468 12.3206 132.468 12.0349H131.848ZM132.281 13.183C132.539 13.4669 132.83 13.6941 133.155 13.861L133.439 13.3089C133.184 13.1783 132.951 12.9984 132.74 12.7656L132.281 13.183ZM133.159 13.8631C133.871 14.2147 134.652 14.4583 135.502 14.5958L135.601 13.9832C134.807 13.8546 134.085 13.6284 133.434 13.3067L133.159 13.8631ZM135.502 14.5959C136.334 14.7292 137.172 14.8586 138.019 14.984L138.11 14.3701C137.266 14.245 136.429 14.116 135.601 13.9831L135.502 14.5959ZM138.019 14.984C138.84 15.1056 139.601 15.318 140.302 15.6197L140.548 15.0496C139.793 14.725 138.98 14.499 138.11 14.3701L138.019 14.984ZM140.304 15.6204C140.737 15.8037 141.154 16.0579 141.556 16.3855L141.948 15.9043C141.504 15.543 141.037 15.257 140.546 15.0489L140.304 15.6204ZM141.556 16.3855C141.946 16.7035 142.265 17.0904 142.512 17.5488L143.058 17.254C142.773 16.726 142.403 16.2752 141.948 15.9043L141.556 16.3855ZM142.512 17.5488C142.75 17.9889 142.874 18.5158 142.874 19.1394H143.495C143.495 18.4321 143.353 17.8003 143.058 17.254L142.512 17.5488ZM142.874 19.1394C142.874 19.9485 142.68 20.6446 142.301 21.2387L142.824 21.5728C143.274 20.8674 143.495 20.0525 143.495 19.1394H142.874ZM142.301 21.2387C141.911 21.8492 141.399 22.3576 140.763 22.7649L141.097 23.2877C141.807 22.8338 142.384 22.2619 142.824 21.5728L142.301 21.2387ZM140.763 22.7649C140.116 23.1783 139.413 23.4908 138.651 23.7019L138.817 24.3C139.637 24.0727 140.397 23.7354 141.097 23.2877L140.763 22.7649ZM138.653 23.7014C137.894 23.9062 137.154 24.0077 136.432 24.0077V24.6283C137.213 24.6283 138.008 24.5185 138.815 24.3005L138.653 23.7014ZM136.432 24.0077C135.448 24.0077 134.528 23.8525 133.672 23.5445L133.462 24.1286C134.391 24.4625 135.381 24.6283 136.432 24.6283V24.0077ZM133.674 23.5454C132.816 23.2292 132.071 22.7868 131.437 22.2195L131.023 22.6822C131.72 23.3049 132.533 23.7863 133.46 24.1277L133.674 23.5454ZM131.439 22.2209C130.805 21.6469 130.322 20.9782 129.988 20.2129L129.419 20.4614C129.789 21.3088 130.325 22.0492 131.022 22.6809L131.439 22.2209ZM129.987 20.2098C129.932 20.0894 129.908 19.976 129.908 19.8674H129.288C129.288 20.072 129.334 20.2718 129.421 20.4645L129.987 20.2098ZM129.908 19.8674C129.908 19.6288 129.989 19.4337 130.158 19.2648L129.719 18.826C129.434 19.1112 129.288 19.4641 129.288 19.8674H129.908ZM130.158 19.2648C130.337 19.0859 130.537 19.0034 130.772 19.0034V18.3828C130.366 18.3828 130.01 18.5352 129.719 18.826L130.158 19.2648ZM130.772 19.0034C130.921 19.0034 131.077 19.0502 131.246 19.1627L131.59 18.6463C131.336 18.4769 131.062 18.3828 130.772 18.3828V19.0034ZM131.253 19.1671C131.416 19.2699 131.512 19.3886 131.563 19.5208L132.142 19.2981C132.036 19.0232 131.843 18.8053 131.583 18.6419L131.253 19.1671ZM131.568 19.5334C131.942 20.3919 132.575 21.0671 133.45 21.5589L133.754 21.0178C132.985 20.5858 132.452 20.0084 132.137 19.2855L131.568 19.5334ZM133.452 21.56C134.326 22.0426 135.322 22.2797 136.432 22.2797V21.6591C135.413 21.6591 134.523 21.4421 133.752 21.0167L133.452 21.56ZM136.432 22.2797C137.129 22.2797 137.827 22.1773 138.527 21.9738L138.354 21.3779C137.707 21.5658 137.067 21.6591 136.432 21.6591V22.2797ZM138.53 21.9729C139.241 21.7578 139.848 21.4277 140.341 20.9772L139.922 20.5191C139.507 20.8985 138.986 21.1868 138.351 21.3788L138.53 21.9729ZM140.341 20.9771C140.87 20.4931 141.135 19.8725 141.135 19.1394H140.514C140.514 19.7058 140.317 20.1577 139.922 20.5192L140.341 20.9771ZM141.135 19.1394C141.135 18.6458 140.963 18.2214 140.615 17.8921L140.188 18.3433C140.403 18.5464 140.514 18.8031 140.514 19.1394H141.135ZM140.621 17.8983C140.321 17.5987 139.987 17.3678 139.619 17.2101L139.375 17.7806C139.665 17.9047 139.934 18.0887 140.182 18.3372L140.621 17.8983ZM139.62 17.2104C138.85 16.8778 138.028 16.6514 137.156 16.5304L137.071 17.1451C137.89 17.2589 138.658 17.4709 139.374 17.7803L139.62 17.2104ZM137.159 16.5308C136.314 16.4057 135.474 16.2767 134.637 16.1437L134.54 16.7567C135.379 16.89 136.221 17.0193 137.068 17.1447L137.159 16.5308ZM134.64 16.1442C133.832 16.0083 133.079 15.7633 132.38 15.41L132.1 15.9639C132.857 16.3465 133.67 16.6104 134.537 16.7562L134.64 16.1442ZM132.38 15.4101C131.803 15.1177 131.271 14.6909 130.785 14.123L130.313 14.5264C130.845 15.1485 131.44 15.6299 132.1 15.9638L132.38 15.4101ZM130.788 14.1264C130.341 13.5889 130.108 12.8997 130.108 12.0349H129.487C129.487 13.0175 129.755 13.855 130.31 14.5231L130.788 14.1264ZM130.108 12.0349C130.108 11.2726 130.29 10.6152 130.647 10.0519L130.122 9.71994C129.696 10.3935 129.487 11.1687 129.487 12.0349H130.108ZM130.646 10.0527C131.021 9.4654 131.513 8.97213 132.127 8.57245L131.789 8.05223C131.104 8.49805 130.547 9.05382 130.123 9.71909L130.646 10.0527ZM132.128 8.57196C132.758 8.15939 133.449 7.84743 134.203 7.6365L134.035 7.03885C133.223 7.26633 132.473 7.60414 131.788 8.05273L132.128 8.57196ZM134.203 7.6365C134.96 7.42455 135.71 7.31919 136.456 7.31919V6.69856C135.651 6.69856 134.844 6.8124 134.035 7.03885L134.203 7.6365Z" fill="white" style="fill:white;fill-opacity:1;" mask="url(#path-2-outside-1_64_2)"/>
</svg>
