<svg width="286" height="234" viewBox="0 0 286 234" fill="#40228C" xmlns="http://www.w3.org/2000/svg">
<path d="M6.27112 202.783C5.31352 202.783 4.48438 202.445 3.78369 201.767C3.10636 201.067 2.7677 200.237 2.7677 199.28L2.6626 155.802C2.63924 155.592 2.62756 155.382 2.62756 155.172C2.62756 154.845 2.69763 154.529 2.83777 154.226C3.00126 153.922 3.18811 153.607 3.39832 153.28C3.95886 152.369 4.76465 151.914 5.81567 151.914C7.49731 151.914 8.65344 152.568 9.28406 153.875L28.0273 184.46L45.3693 153.84C46.0699 152.673 47.0159 152.089 48.207 152.089C49.2113 152.089 50.0872 152.416 50.8346 153.07C51.582 153.724 51.9557 154.564 51.9557 155.592V199.42C51.9557 200.378 51.6053 201.207 50.9047 201.907C50.2273 202.585 49.4099 202.923 48.4523 202.923C47.4947 202.923 46.6655 202.585 45.9648 201.907C45.2875 201.207 44.9489 200.378 44.9489 199.42V168.099L31.1804 193.114C30.9235 193.534 30.5264 193.943 29.9893 194.34C29.4521 194.714 28.8682 194.9 28.2375 194.9C26.8829 194.9 25.8435 194.34 25.1195 193.219L9.66943 167.959L9.77454 199.245V199.28C9.77454 200.237 9.42419 201.067 8.72351 201.767C8.04618 202.445 7.22872 202.783 6.27112 202.783ZM61.6952 160.812C60.6208 160.812 59.745 160.485 59.0676 159.831C58.3903 159.154 58.04 158.325 58.0166 157.344L57.9465 154.681C57.9465 153.794 58.3436 153.081 59.1377 152.544C59.9318 151.984 60.6909 151.703 61.4149 151.703C62.3959 151.703 63.2133 152.042 63.8673 152.719C64.5446 153.397 64.895 154.214 64.9183 155.172L64.9534 157.274C64.9534 158.185 64.6497 159.002 64.0425 159.726C63.4352 160.45 62.6528 160.812 61.6952 160.812ZM57.9115 167.434C57.9115 166.546 58.2852 165.822 59.0326 165.262C59.78 164.701 60.504 164.421 61.2047 164.421C62.2324 164.421 63.1082 164.724 63.8323 165.332C64.5563 165.939 64.9183 166.745 64.9183 167.749V167.784L64.9884 200.226C64.9884 201.16 64.6381 201.954 63.9374 202.608C63.2601 203.262 62.4426 203.589 61.485 203.589C60.504 203.589 59.6749 203.262 58.9976 202.608C58.3202 201.931 57.9816 201.125 57.9816 200.191L57.9115 167.434ZM100.898 164.421C101.739 164.421 102.498 164.759 103.176 165.437C103.876 166.114 104.227 166.861 104.227 167.679C104.227 168.403 104.11 168.999 103.876 169.466L89.0919 201.452C88.4613 202.783 87.3869 203.449 85.8688 203.449C84.3039 203.449 83.2529 202.736 82.7157 201.312L69.4728 169.326C69.2859 168.928 69.1925 168.38 69.1925 167.679C69.1925 166.932 69.5078 166.208 70.1384 165.507C70.7924 164.783 71.5164 164.421 72.3105 164.421C74.1323 164.421 75.3468 165.145 75.9541 166.593L86.149 191.397L97.5352 166.453C98.1658 165.098 99.2869 164.421 100.898 164.421ZM125.177 164.246C126.905 164.246 128.587 164.596 130.222 165.297C131.88 165.974 133.352 166.838 134.636 167.889C135.944 168.917 136.914 169.98 137.544 171.077L137.93 167.714C137.93 166.756 138.21 165.939 138.77 165.262C139.331 164.561 140.09 164.211 141.048 164.211C142.005 164.211 142.823 164.561 143.5 165.262C144.201 165.939 144.551 166.756 144.551 167.714V167.784L144.481 200.226C144.481 201.183 144.131 202.012 143.43 202.713C142.753 203.39 141.935 203.729 140.978 203.729C140.02 203.729 139.261 203.39 138.7 202.713C138.14 202.012 137.859 201.183 137.859 200.226L137.474 197.423C136.26 199.502 134.485 201.055 132.149 202.083C129.813 203.087 127.466 203.589 125.107 203.589C122.468 203.589 119.992 203.075 117.68 202.047C115.368 200.996 113.336 199.56 111.584 197.738C109.832 195.916 108.454 193.826 107.45 191.467C106.469 189.108 105.978 186.621 105.978 184.005C105.978 181.412 106.457 178.937 107.415 176.578C108.396 174.195 109.75 172.082 111.479 170.236C113.23 168.368 115.262 166.908 117.575 165.857C119.91 164.783 122.444 164.246 125.177 164.246ZM137.264 183.935C137.264 181.646 136.727 179.544 135.652 177.629C134.601 175.713 133.165 174.172 131.343 173.004C129.521 171.836 127.443 171.252 125.107 171.252C122.818 171.252 120.751 171.836 118.906 173.004C117.061 174.172 115.601 175.725 114.527 177.664C113.452 179.579 112.915 181.658 112.915 183.9C112.915 186.165 113.464 188.267 114.562 190.206C115.66 192.121 117.131 193.663 118.976 194.83C120.845 195.998 122.9 196.582 125.142 196.582C127.384 196.582 129.416 195.998 131.238 194.83C133.083 193.663 134.543 192.121 135.617 190.206C136.715 188.267 137.264 186.177 137.264 183.935ZM154.255 203.309C153.298 203.309 152.469 202.982 151.768 202.328C151.091 201.65 150.752 200.845 150.752 199.91V199.875L150.682 155.978C150.682 155.347 150.974 154.635 151.558 153.84C152.165 153.023 153.029 152.603 154.15 152.579L165.186 152.509C168.596 152.509 171.691 153.07 174.47 154.191C177.273 155.289 179.492 156.958 181.127 159.201C182.785 161.443 183.614 164.292 183.614 167.749C183.614 171.696 182.75 174.873 181.022 177.278C179.293 179.684 176.923 181.447 173.91 182.568C170.92 183.69 167.51 184.308 163.68 184.425L157.724 184.565L157.759 199.945V199.98C157.759 200.915 157.409 201.709 156.708 202.363C156.031 202.993 155.213 203.309 154.255 203.309ZM176.607 167.784C176.607 164.865 175.568 162.762 173.489 161.478C171.434 160.193 168.584 159.551 164.941 159.551H157.689L157.724 177.489L163.575 177.348C167.685 177.255 170.885 176.554 173.174 175.246C175.463 173.938 176.607 171.451 176.607 167.784ZM211.817 151.949C215.39 151.949 218.672 152.649 221.661 154.051C224.674 155.429 227.29 157.332 229.509 159.761C231.728 162.167 233.444 164.946 234.659 168.099C235.873 171.229 236.481 174.557 236.481 178.084C236.481 181.611 235.873 184.927 234.659 188.034C233.468 191.117 231.774 193.838 229.579 196.197C227.384 198.556 224.779 200.401 221.766 201.732C218.777 203.063 215.472 203.729 211.852 203.729C208.161 203.729 204.81 203.063 201.797 201.732C198.784 200.378 196.191 198.521 194.019 196.162C191.871 193.779 190.212 191.035 189.044 187.929C187.877 184.799 187.293 181.447 187.293 177.874C187.293 174.394 187.9 171.101 189.115 167.994C190.352 164.888 192.069 162.132 194.265 159.726C196.483 157.297 199.076 155.394 202.042 154.016C205.032 152.638 208.29 151.949 211.817 151.949ZM211.957 159.061C208.5 159.061 205.44 159.96 202.778 161.758C200.139 163.557 198.06 165.939 196.542 168.905C195.047 171.848 194.3 175.071 194.3 178.575C194.3 180.957 194.755 183.234 195.666 185.406C196.577 187.578 197.838 189.517 199.45 191.222C201.061 192.904 202.918 194.235 205.02 195.216C207.145 196.173 209.411 196.652 211.817 196.652C214.222 196.652 216.488 196.15 218.613 195.146C220.762 194.141 222.654 192.787 224.289 191.082C225.947 189.377 227.243 187.462 228.178 185.336C229.112 183.187 229.579 180.992 229.579 178.75C229.579 175.13 228.785 171.836 227.197 168.87C225.632 165.881 223.518 163.498 220.855 161.723C218.193 159.948 215.227 159.061 211.957 159.061ZM262.196 151.879C264.882 151.879 267.416 152.334 269.798 153.245C272.204 154.156 274.306 155.417 276.104 157.029C277.903 158.64 279.269 160.509 280.203 162.634C280.414 163.101 280.519 163.58 280.519 164.07C280.519 165.028 280.168 165.857 279.468 166.558C278.79 167.235 277.973 167.574 277.015 167.574C276.385 167.574 275.754 167.375 275.123 166.978C274.493 166.558 274.049 166.056 273.792 165.472C272.905 163.463 271.421 161.863 269.343 160.672C267.287 159.481 264.905 158.885 262.196 158.885C260.865 158.885 259.451 159.049 257.957 159.376C256.485 159.703 255.096 160.205 253.788 160.882C252.48 161.536 251.417 162.365 250.599 163.37C249.782 164.374 249.373 165.542 249.373 166.873C249.373 167.948 249.724 168.882 250.424 169.676C251.125 170.447 251.907 171.054 252.772 171.498C254.804 172.502 257.046 173.203 259.498 173.6C261.974 173.997 264.473 174.382 266.995 174.756C269.518 175.13 271.865 175.784 274.037 176.718C275.415 177.302 276.735 178.107 277.996 179.135C279.257 180.163 280.285 181.412 281.079 182.884C281.873 184.355 282.27 186.084 282.27 188.069C282.27 190.638 281.651 192.892 280.414 194.83C279.176 196.769 277.552 198.381 275.544 199.665C273.535 200.95 271.351 201.919 268.992 202.573C266.657 203.204 264.368 203.519 262.126 203.519C259.089 203.519 256.24 203.04 253.577 202.083C250.915 201.102 248.591 199.724 246.606 197.948C244.62 196.15 243.102 194.048 242.051 191.642C241.841 191.175 241.736 190.708 241.736 190.241C241.736 189.283 242.075 188.466 242.752 187.789C243.453 187.088 244.282 186.738 245.239 186.738C245.893 186.738 246.536 186.948 247.166 187.368C247.797 187.765 248.229 188.267 248.462 188.875C249.49 191.234 251.23 193.102 253.682 194.48C256.135 195.835 258.949 196.512 262.126 196.512C264.111 196.512 266.108 196.22 268.117 195.636C270.125 195.029 271.807 194.106 273.161 192.869C274.54 191.607 275.229 190.007 275.229 188.069C275.229 186.831 274.808 185.815 273.967 185.021C273.15 184.203 272.251 183.584 271.27 183.164C269.051 182.206 266.68 181.552 264.158 181.202C261.635 180.828 259.124 180.443 256.625 180.046C254.126 179.626 251.791 178.867 249.619 177.769C247.773 176.835 246.092 175.48 244.574 173.705C243.079 171.906 242.331 169.629 242.331 166.873C242.331 164.444 242.915 162.307 244.083 160.462C245.274 158.593 246.839 157.029 248.778 155.767C250.74 154.483 252.888 153.513 255.224 152.859C257.56 152.206 259.884 151.879 262.196 151.879Z" fill="#40228C" style="fill:#40228C;fill:color(display-p3 0.2510 0.1333 0.5490);fill-opacity:1;"/>
<path d="M152.612 122.009H135.17V61.0045C135.17 54.992 134.036 49.3481 131.767 44.073C129.498 38.7978 126.378 34.2034 122.408 30.2895C118.494 26.319 113.871 23.1993 108.539 20.9304C103.264 18.6048 97.6201 17.442 91.6076 17.442H82.2485V122.009H64.8065V-1.52588e-05H91.6076C97.1664 -1.52588e-05 102.498 0.737371 107.603 2.21214C112.765 3.63019 117.586 5.64382 122.067 8.25304C126.548 10.8622 130.632 13.982 134.319 17.6122C138.006 21.2424 141.211 25.2696 143.934 29.694C146.6 25.2696 149.776 21.2424 153.463 17.6122C157.15 13.982 161.234 10.8622 165.715 8.25304C170.196 5.64382 174.989 3.63019 180.094 2.21214C185.256 0.737371 190.616 -1.52588e-05 196.175 -1.52588e-05H223.061V122.009H205.619V17.442H196.175C190.162 17.442 184.518 18.6048 179.243 20.9304C173.968 23.1993 169.345 26.319 165.375 30.2895C161.461 34.2034 158.341 38.7978 156.015 44.073C153.747 49.3481 152.612 54.992 152.612 61.0045V122.009Z" fill="#40228C" style="fill:#40228C;fill:color(display-p3 0.2510 0.1333 0.5490);fill-opacity:1;"/>
<path d="M161.269 109.048C161.269 118.251 153.808 125.712 144.604 125.712C135.401 125.712 127.94 118.251 127.94 109.048C127.94 99.8442 135.401 92.3832 144.604 92.3832C153.808 92.3832 161.269 99.8442 161.269 109.048Z" fill="#40228C" style="fill:#40228C;fill:color(display-p3 0.2510 0.1333 0.5490);fill-opacity:1;"/>
</svg>
